<svg width="250" height="237" viewBox="0 0 250 237" fill="none" xmlns="http://www.w3.org/2000/svg">
<path d="M252.045 212.766C251.266 214.064 250.237 215.196 249.018 216.097C247.798 216.998 246.413 217.65 244.94 218.015C243.468 218.381 241.937 218.453 240.436 218.228C238.936 218.002 237.495 217.484 236.195 216.702L138.419 158.195V264.305C138.419 267.353 137.205 270.276 135.043 272.431C132.881 274.586 129.95 275.797 126.892 275.797C123.835 275.797 120.903 274.586 118.742 272.431C116.58 270.276 115.366 267.353 115.366 264.305V158.195L17.5606 216.702C16.2621 217.497 14.8182 218.028 13.3126 218.263C11.807 218.498 10.2696 218.434 8.7892 218.073C7.30881 217.712 5.91489 217.062 4.68809 216.161C3.46129 215.259 2.42596 214.124 1.64202 212.821C0.858069 211.519 0.341061 210.074 0.120906 208.57C-0.0992482 207.067 -0.0181745 205.535 0.359429 204.063C0.737032 202.591 1.40367 201.208 2.32077 199.995C3.23788 198.781 4.38725 197.761 5.70237 196.994L104.487 137.898L5.70237 78.8032C4.38725 78.0355 3.23788 77.0154 2.32077 75.802C1.40367 74.5885 0.737032 73.2059 0.359429 71.7339C-0.0181745 70.2619 -0.0992482 68.73 0.120906 67.2266C0.341061 65.7232 0.858069 64.2782 1.64202 62.9753C2.42596 61.6724 3.46129 60.5374 4.68809 59.6361C5.91489 58.7346 7.30881 58.0847 8.7892 57.7239C10.2696 57.363 11.807 57.2985 13.3126 57.5338C14.8182 57.7692 16.2621 58.2999 17.5606 59.0952L115.366 117.601V11.4915C115.366 8.44379 116.58 5.52088 118.742 3.36579C120.903 1.21071 123.835 0 126.892 0C129.95 0 132.881 1.21071 135.043 3.36579C137.205 5.52088 138.419 8.44379 138.419 11.4915V117.601L236.224 59.0952C237.523 58.2999 238.967 57.7692 240.472 57.5338C241.978 57.2985 243.515 57.363 244.996 57.7239C246.476 58.0847 247.87 58.7346 249.097 59.6361C250.324 60.5374 251.359 61.6724 252.143 62.9753C252.927 64.2782 253.444 65.7232 253.664 67.2266C253.884 68.73 253.803 70.2619 253.425 71.7339C253.048 73.2059 252.381 74.5885 251.464 75.802C250.547 77.0154 249.398 78.0355 248.083 78.8032L149.298 137.898L248.083 196.994C249.382 197.769 250.515 198.793 251.418 200.005C252.321 201.218 252.974 202.596 253.342 204.061C253.71 205.526 253.785 207.049 253.563 208.542C253.34 210.036 252.824 211.471 252.045 212.766Z" fill="white" fill-opacity="0.1"/>
</svg>
