<svg width="142" height="175" viewBox="0 0 142 175" fill="none" xmlns="http://www.w3.org/2000/svg">
<path d="M159.758 134.861C159.264 135.684 158.612 136.401 157.839 136.972C157.066 137.543 156.188 137.956 155.254 138.188C154.321 138.42 153.351 138.466 152.4 138.323C151.449 138.18 150.535 137.851 149.712 137.355L87.7365 100.272V167.529C87.7365 169.461 86.9668 171.313 85.5966 172.679C84.2264 174.045 82.368 174.813 80.4303 174.813C78.4926 174.813 76.6342 174.045 75.264 172.679C73.8938 171.313 73.1241 169.461 73.1241 167.529V100.272L11.1307 137.355C10.3076 137.86 9.39248 138.196 8.43817 138.345C7.48385 138.494 6.50934 138.453 5.571 138.225C4.63266 137.996 3.74913 137.584 2.97153 137.013C2.19393 136.441 1.53769 135.722 1.04079 134.896C0.543884 134.07 0.21618 133.154 0.0766359 132.201C-0.0629081 131.249 -0.0115199 130.277 0.227822 129.344C0.467165 128.412 0.88971 127.535 1.47101 126.766C2.05232 125.997 2.78084 125.35 3.61443 124.864L66.2288 87.4064L3.61443 49.9491C2.78084 49.4625 2.05232 48.8159 1.47101 48.0468C0.88971 47.2777 0.467165 46.4012 0.227822 45.4683C-0.0115199 44.5353 -0.0629081 43.5642 0.0766359 42.6113C0.21618 41.6584 0.543884 40.7425 1.04079 39.9167C1.53769 39.0908 2.19393 38.3714 2.97153 37.8001C3.74913 37.2287 4.63266 36.8168 5.571 36.5881C6.50934 36.3593 7.48385 36.3184 8.43817 36.4676C9.39248 36.6168 10.3076 36.9532 11.1307 37.4573L73.1241 74.5413V7.28386C73.1241 5.35206 73.8938 3.49939 75.264 2.1334C76.6342 0.767406 78.4926 0 80.4303 0C82.368 0 84.2264 0.767406 85.5966 2.1334C86.9668 3.49939 87.7365 5.35206 87.7365 7.28386V74.5413L149.73 37.4573C150.553 36.9532 151.468 36.6168 152.422 36.4676C153.377 36.3184 154.351 36.3593 155.29 36.5881C156.228 36.8168 157.111 37.2287 157.889 37.8001C158.667 38.3714 159.323 39.0908 159.82 39.9167C160.317 40.7425 160.644 41.6584 160.784 42.6113C160.923 43.5642 160.872 44.5353 160.633 45.4683C160.393 46.4012 159.971 47.2777 159.39 48.0468C158.808 48.8159 158.08 49.4625 157.246 49.9491L94.6318 87.4064L157.246 124.864C158.07 125.355 158.788 126.004 159.36 126.773C159.932 127.541 160.347 128.415 160.58 129.343C160.813 130.272 160.861 131.237 160.72 132.184C160.579 133.13 160.252 134.04 159.758 134.861Z" fill="white" fill-opacity="0.1"/>
</svg>
