<svg width="152" height="157" viewBox="0 0 152 157" fill="none" xmlns="http://www.w3.org/2000/svg">
<path d="M150.561 136.548C150.063 137.381 149.404 138.108 148.624 138.686C147.844 139.264 146.958 139.682 146.016 139.917C145.073 140.152 144.094 140.198 143.134 140.054C142.174 139.909 141.252 139.576 140.421 139.074L77.8622 101.526V169.625C77.8622 171.581 77.0852 173.457 75.7021 174.84C74.319 176.223 72.4431 177 70.4872 177C68.5312 177 66.6553 176.223 65.2723 174.84C63.8892 173.457 63.1122 171.581 63.1122 169.625V101.526L0.535284 139.074C-0.295527 139.584 -1.21931 139.925 -2.1826 140.076C-3.1459 140.227 -4.12959 140.186 -5.07676 139.954C-6.02393 139.723 -6.91577 139.305 -7.7007 138.727C-8.48562 138.148 -9.14803 137.42 -9.64961 136.584C-10.1512 135.748 -10.482 134.82 -10.6228 133.856C-10.7637 132.891 -10.7118 131.908 -10.4702 130.963C-10.2286 130.018 -9.80211 129.131 -9.21533 128.352C-8.62856 127.573 -7.89318 126.919 -7.05175 126.426L56.152 88.5L-7.05175 50.5741C-7.89318 50.0814 -8.62856 49.4267 -9.21533 48.6479C-9.80211 47.8692 -10.2286 46.9818 -10.4702 46.0372C-10.7118 45.0925 -10.7637 44.1093 -10.6228 43.1444C-10.482 42.1796 -10.1512 41.2523 -9.64961 40.4161C-9.14803 39.5799 -8.48562 38.8515 -7.7007 38.273C-6.91577 37.6945 -6.02393 37.2774 -5.07676 37.0458C-4.12959 36.8143 -3.1459 36.7728 -2.1826 36.9239C-1.21931 37.0749 -0.295527 37.4155 0.535284 37.9259L63.1122 75.4739V7.375C63.1122 5.41903 63.8892 3.54317 65.2723 2.16009C66.6553 0.777008 68.5312 0 70.4872 0C72.4431 0 74.319 0.777008 75.7021 2.16009C77.0852 3.54317 77.8622 5.41903 77.8622 7.375V75.4739L140.439 37.9259C141.27 37.4155 142.194 37.0749 143.157 36.9239C144.12 36.7728 145.104 36.8143 146.051 37.0458C146.998 37.2774 147.89 37.6945 148.675 38.273C149.46 38.8515 150.122 39.5799 150.624 40.4161C151.126 41.2523 151.456 42.1796 151.597 43.1444C151.738 44.1093 151.686 45.0925 151.445 46.0372C151.203 46.9818 150.776 47.8692 150.19 48.6479C149.603 49.4267 148.868 50.0814 148.026 50.5741L84.8223 88.5L148.026 126.426C148.858 126.924 149.583 127.581 150.16 128.359C150.738 129.137 151.156 130.022 151.391 130.962C151.627 131.902 151.675 132.879 151.532 133.837C151.39 134.796 151.06 135.717 150.561 136.548Z" fill="white" fill-opacity="0.1"/>
</svg>
