<svg width="127" height="153" viewBox="0 0 127 153" fill="none" xmlns="http://www.w3.org/2000/svg">
<path d="M161.261 112.313C160.763 113.146 160.105 113.873 159.325 114.451C158.544 115.029 157.658 115.447 156.716 115.682C155.774 115.917 154.794 115.963 153.834 115.818C152.874 115.674 151.952 115.341 151.121 114.839L88.5624 77.2909V145.39C88.5624 147.346 87.7854 149.222 86.4023 150.605C85.0192 151.988 83.1433 152.765 81.1874 152.765C79.2314 152.765 77.3555 151.988 75.9725 150.605C74.5894 149.222 73.8124 147.346 73.8124 145.39V77.2909L11.2355 114.839C10.4047 115.349 9.48089 115.69 8.51759 115.841C7.5543 115.992 6.57061 115.951 5.62344 115.719C4.67627 115.487 3.78442 115.07 2.9995 114.492C2.21458 113.913 1.55216 113.185 1.05058 112.349C0.549003 111.512 0.218215 110.585 0.0773573 109.62C-0.0635003 108.655 -0.0116283 107.672 0.229967 106.728C0.471562 105.783 0.898084 104.896 1.48486 104.117C2.07164 103.338 2.80702 102.683 3.64845 102.191L66.8522 64.2648L3.64845 26.3388C2.80702 25.8461 2.07164 25.1915 1.48486 24.4127C0.898084 23.634 0.471562 22.7466 0.229967 21.8019C-0.0116283 20.8573 -0.0635003 19.8741 0.0773573 18.9092C0.218215 17.9444 0.549003 17.017 1.05058 16.1809C1.55216 15.3447 2.21458 14.6163 2.9995 14.0378C3.78442 13.4593 4.67627 13.0422 5.62344 12.8106C6.57061 12.579 7.5543 12.5376 8.51759 12.6887C9.48089 12.8397 10.4047 13.1803 11.2355 13.6907L73.8124 51.2387V-16.8602C73.8124 -18.8162 74.5894 -20.6921 75.9725 -22.0751C77.3555 -23.4582 79.2314 -24.2352 81.1874 -24.2352C83.1433 -24.2352 85.0192 -23.4582 86.4023 -22.0751C87.7854 -20.6921 88.5624 -18.8162 88.5624 -16.8602V51.2387L151.139 13.6907C151.97 13.1803 152.894 12.8397 153.857 12.6887C154.82 12.5376 155.804 12.579 156.751 12.8106C157.698 13.0422 158.59 13.4593 159.375 14.0378C160.16 14.6163 160.823 15.3447 161.324 16.1809C161.826 17.017 162.156 17.9444 162.297 18.9092C162.438 19.8741 162.386 20.8573 162.145 21.8019C161.903 22.7466 161.477 23.634 160.89 24.4127C160.303 25.1915 159.568 25.8461 158.726 26.3388L95.5225 64.2648L158.726 102.191C159.558 102.689 160.283 103.345 160.86 104.124C161.438 104.902 161.856 105.786 162.092 106.726C162.327 107.666 162.375 108.644 162.232 109.602C162.09 110.561 161.76 111.482 161.261 112.313Z" fill="white" fill-opacity="0.1"/>
</svg>
