<svg width="40" height="40" viewBox="0 0 40 40" fill="none" xmlns="http://www.w3.org/2000/svg">
<path d="M20 3.75C16.7861 3.75 13.6443 4.70305 10.972 6.48862C8.29969 8.27419 6.21689 10.8121 4.98696 13.7814C3.75704 16.7507 3.43524 20.018 4.06225 23.1702C4.68926 26.3224 6.23692 29.2179 8.50952 31.4905C10.7821 33.7631 13.6776 35.3107 16.8298 35.9378C19.982 36.5648 23.2493 36.243 26.2186 35.013C29.1879 33.7831 31.7258 31.7003 33.5114 29.028C35.297 26.3557 36.25 23.2139 36.25 20C36.2455 15.6916 34.5319 11.561 31.4855 8.51454C28.439 5.46806 24.3084 3.75455 20 3.75ZM26.1094 24.3422C27.0138 23.0749 27.4999 21.5569 27.4999 20C27.4999 18.4431 27.0138 16.9251 26.1094 15.6578L30.5625 11.2063C32.622 13.6738 33.7502 16.7859 33.7502 20C33.7502 23.2141 32.622 26.3262 30.5625 28.7938L26.1094 24.3422ZM15 20C15 19.0111 15.2933 18.0444 15.8427 17.2221C16.3921 16.3999 17.173 15.759 18.0866 15.3806C19.0002 15.0022 20.0056 14.9031 20.9755 15.0961C21.9454 15.289 22.8363 15.7652 23.5355 16.4645C24.2348 17.1637 24.711 18.0546 24.9039 19.0245C25.0969 19.9945 24.9978 20.9998 24.6194 21.9134C24.241 22.827 23.6001 23.6079 22.7779 24.1573C21.9556 24.7068 20.9889 25 20 25C18.6739 25 17.4022 24.4732 16.4645 23.5355C15.5268 22.5979 15 21.3261 15 20ZM28.7938 9.4375L24.3422 13.8906C23.0749 12.9862 21.5569 12.5001 20 12.5001C18.4431 12.5001 16.9251 12.9862 15.6578 13.8906L11.2063 9.4375C13.6738 7.37796 16.7859 6.24984 20 6.24984C23.2141 6.24984 26.3262 7.37796 28.7938 9.4375ZM9.43751 11.2063L13.8906 15.6578C12.9862 16.9251 12.5001 18.4431 12.5001 20C12.5001 21.5569 12.9862 23.0749 13.8906 24.3422L9.43751 28.7938C7.37797 26.3262 6.24985 23.2141 6.24985 20C6.24985 16.7859 7.37797 13.6738 9.43751 11.2063ZM11.2063 30.5625L15.6578 26.1094C16.9251 27.0138 18.4431 27.4999 20 27.4999C21.5569 27.4999 23.0749 27.0138 24.3422 26.1094L28.7938 30.5625C26.3262 32.622 23.2141 33.7502 20 33.7502C16.7859 33.7502 13.6738 32.622 11.2063 30.5625Z" fill="black" fill-opacity="0.5"/>
</svg>
