<svg width="135" height="152" viewBox="0 0 135 152" fill="none" xmlns="http://www.w3.org/2000/svg">
<path d="M171.511 108.227C170.981 109.113 170.281 109.886 169.451 110.501C168.621 111.116 167.679 111.561 166.676 111.81C165.674 112.06 164.633 112.109 163.612 111.955C162.591 111.801 161.61 111.447 160.726 110.914L94.1913 70.979V143.406C94.1913 145.487 93.3649 147.482 91.8939 148.953C90.423 150.424 88.4279 151.25 86.3476 151.25C84.2673 151.25 82.2722 150.424 80.8012 148.953C79.3302 147.482 78.5038 145.487 78.5038 143.406V70.979L11.9496 110.914C11.066 111.456 10.0835 111.819 9.05897 111.979C8.03444 112.14 6.98823 112.096 5.98086 111.85C4.97349 111.603 4.02496 111.16 3.19015 110.544C2.35533 109.929 1.65082 109.154 1.11736 108.265C0.583897 107.376 0.232084 106.389 0.082274 105.363C-0.0675363 104.337 -0.0123674 103.291 0.244583 102.287C0.501534 101.282 0.955166 100.338 1.57924 99.51C2.20331 98.6818 2.98543 97.9855 3.88034 97.4615L71.1013 57.125L3.88034 16.7885C2.98543 16.2645 2.20331 15.5682 1.57924 14.74C0.955166 13.9117 0.501534 12.9679 0.244583 11.9632C-0.0123674 10.9585 -0.0675363 9.91285 0.082274 8.88668C0.232084 7.86052 0.583897 6.87424 1.11736 5.98492C1.65082 5.0956 2.35533 4.32091 3.19015 3.70564C4.02496 3.09037 4.97349 2.64676 5.98086 2.40046C6.98823 2.15416 8.03444 2.11007 9.05897 2.27074C10.0835 2.4314 11.066 2.79364 11.9496 3.33648L78.5038 43.271V-29.1562C78.5038 -31.2365 79.3302 -33.2316 80.8012 -34.7026C82.2722 -36.1736 84.2673 -37 86.3476 -37C88.4279 -37 90.423 -36.1736 91.8939 -34.7026C93.3649 -33.2316 94.1913 -31.2365 94.1913 -29.1562V43.271L160.746 3.33648C161.629 2.79364 162.612 2.4314 163.636 2.27074C164.661 2.11007 165.707 2.15416 166.714 2.40046C167.722 2.64676 168.67 3.09037 169.505 3.70564C170.34 4.32091 171.044 5.0956 171.578 5.98492C172.111 6.87424 172.463 7.86052 172.613 8.88668C172.763 9.91285 172.708 10.9585 172.451 11.9632C172.194 12.9679 171.74 13.9117 171.116 14.74C170.492 15.5682 169.71 16.2645 168.815 16.7885L101.594 57.125L168.815 97.4615C169.699 97.991 170.47 98.6895 171.085 99.5173C171.699 100.345 172.144 101.286 172.394 102.285C172.644 103.285 172.695 104.325 172.544 105.344C172.392 106.364 172.041 107.343 171.511 108.227Z" fill="black" fill-opacity="0.05"/>
</svg>
