<svg width="15" height="18" viewBox="0 0 15 18" fill="none" xmlns="http://www.w3.org/2000/svg">
<path d="M15.002 10.5098L15 10.5303L14.9922 10.6172L14.9902 10.6357L14.9873 10.6465L14.958 10.7529C14.9211 10.8564 14.8616 10.9519 14.7822 11.0312L8.03223 17.7812C7.96661 17.8469 7.88448 17.9037 7.78906 17.9434C7.69413 17.9826 7.59505 18.0009 7.50195 18.001L7.49512 18.001L7.47754 17.999L7.47559 17.999L7.38867 17.9912L7.37695 17.9902L7.35742 17.9863C7.30903 17.9769 7.26013 17.9635 7.21387 17.9443C7.16929 17.9258 7.12561 17.9021 7.08496 17.875L7.0625 17.8594L6.99805 17.8057L6.99609 17.8047L6.99414 17.8027L6.9873 17.7969L6.74219 17.5859L6.75976 17.5684L6.68848 17.498L0.220703 11.0312C0.0797772 10.8903 0.000976095 10.6987 0.000976104 10.5C0.000976112 10.3013 0.0797773 10.1097 0.220703 9.96875C0.326345 9.86341 0.461306 9.79237 0.605468 9.76367L0.617187 9.76074L0.721679 9.75098L0.742187 9.74902L0.751953 9.74902C0.951175 9.74929 1.14243 9.82931 1.28223 9.96875L6.58105 15.2686L6.75098 15.4395L6.75098 0.75C6.75098 0.550176 6.83239 0.360384 6.97168 0.220703C7.05118 0.141496 7.14677 0.0808872 7.25 0.043945L7.35547 0.0146481L7.36621 0.012695L7.38477 0.0107419L7.47168 0.0019528L7.49219 -3.28262e-07L7.50195 -3.27835e-07C7.70088 0.000268033 7.89208 0.0795831 8.03223 0.219726C8.17153 0.359422 8.25195 0.550202 8.25195 0.75L8.25195 15.4395L8.42187 15.2686L13.7207 9.96875C13.8613 9.82853 14.0532 9.74902 14.252 9.74902L14.2617 9.74902L14.2822 9.75098L14.3896 9.76172L14.3994 9.76367C14.5437 9.79272 14.6774 9.86423 14.7822 9.96875C14.9232 10.1097 15.002 10.3013 15.002 10.5L15.002 10.5098Z" fill="black"/>
</svg>
