<svg width="24" height="24" viewBox="0 0 24 24" fill="none" xmlns="http://www.w3.org/2000/svg">
<path d="M23.2507 11.625C23.2497 10.6316 22.9674 9.65871 22.4365 8.81903C21.9056 7.97936 21.1478 7.30719 20.2507 6.88031V6.75C20.2498 5.78364 19.9379 4.84323 19.3611 4.06792C18.7843 3.2926 17.9732 2.72357 17.0478 2.44503C16.1225 2.16648 15.132 2.19321 14.2231 2.52126C13.3141 2.84931 12.5349 3.46126 12.0007 4.26656C11.4665 3.46126 10.6873 2.84931 9.77834 2.52126C8.86937 2.19321 7.87894 2.16648 6.95359 2.44503C6.02825 2.72357 5.21716 3.2926 4.64033 4.06792C4.06349 4.84323 3.75157 5.78364 3.7507 6.75V6.88031C2.85289 7.30602 2.09432 7.97776 1.56315 8.81749C1.03197 9.65722 0.75 10.6304 0.75 11.6241C0.75 12.6177 1.03197 13.5909 1.56315 14.4306C2.09432 15.2704 2.85289 15.9421 3.7507 16.3678V16.5C3.75157 17.4664 4.06349 18.4068 4.64033 19.1821C5.21716 19.9574 6.02825 20.5264 6.95359 20.805C7.87894 21.0835 8.86937 21.0568 9.77834 20.7287C10.6873 20.4007 11.4665 19.7887 12.0007 18.9834C12.5349 19.7887 13.3141 20.4007 14.2231 20.7287C15.132 21.0568 16.1225 21.0835 17.0478 20.805C17.9732 20.5264 18.7843 19.9574 19.3611 19.1821C19.9379 18.4068 20.2498 17.4664 20.2507 16.5V16.3678C21.1476 15.9413 21.9054 15.2694 22.4363 14.4301C22.9672 13.5907 23.2496 12.6182 23.2507 11.625ZM8.2507 19.5C7.51097 19.4999 6.79735 19.2265 6.24691 18.7323C5.69648 18.2381 5.34804 17.558 5.26852 16.8225C5.51105 16.8571 5.75571 16.8746 6.0007 16.875H6.7507C6.94962 16.875 7.14038 16.796 7.28103 16.6553C7.42169 16.5147 7.5007 16.3239 7.5007 16.125C7.5007 15.9261 7.42169 15.7353 7.28103 15.5947C7.14038 15.454 6.94962 15.375 6.7507 15.375H6.0007C5.11529 15.376 4.25807 15.0637 3.58081 14.4934C2.90355 13.9231 2.44993 13.1315 2.30028 12.2588C2.15062 11.3862 2.31458 10.4887 2.76312 9.72529C3.21166 8.9619 3.91585 8.38184 4.75102 8.08781C4.89715 8.03608 5.02365 7.94033 5.11314 7.81374C5.20262 7.68716 5.25068 7.53596 5.2507 7.38094V6.75C5.2507 5.95435 5.56677 5.19129 6.12938 4.62868C6.69199 4.06607 7.45505 3.75 8.2507 3.75C9.04635 3.75 9.80941 4.06607 10.372 4.62868C10.9346 5.19129 11.2507 5.95435 11.2507 6.75V13.1494C10.4271 12.4086 9.35839 11.9992 8.2507 12C8.05179 12 7.86103 12.079 7.72037 12.2197C7.57972 12.3603 7.5007 12.5511 7.5007 12.75C7.5007 12.9489 7.57972 13.1397 7.72037 13.2803C7.86103 13.421 8.05179 13.5 8.2507 13.5C9.04635 13.5 9.80941 13.8161 10.372 14.3787C10.9346 14.9413 11.2507 15.7044 11.2507 16.5C11.2507 17.2956 10.9346 18.0587 10.372 18.6213C9.80941 19.1839 9.04635 19.5 8.2507 19.5ZM18.0007 15.375H17.2507C17.0518 15.375 16.861 15.454 16.7204 15.5947C16.5797 15.7353 16.5007 15.9261 16.5007 16.125C16.5007 16.3239 16.5797 16.5147 16.7204 16.6553C16.861 16.796 17.0518 16.875 17.2507 16.875H18.0007C18.2457 16.8746 18.4904 16.8571 18.7329 16.8225C18.6706 17.3988 18.4427 17.9446 18.0767 18.3941C17.7108 18.8436 17.2225 19.1774 16.6708 19.3553C16.1192 19.5331 15.5278 19.5474 14.9683 19.3963C14.4087 19.2452 13.9049 18.9352 13.5177 18.5039C13.1305 18.0726 12.8766 17.5383 12.7866 16.9657C12.6967 16.3931 12.7745 15.8067 13.0107 15.2775C13.2469 14.7482 13.6314 14.2986 14.1176 13.9832C14.6039 13.6677 15.1711 13.4999 15.7507 13.5C15.9496 13.5 16.1404 13.421 16.281 13.2803C16.4217 13.1397 16.5007 12.9489 16.5007 12.75C16.5007 12.5511 16.4217 12.3603 16.281 12.2197C16.1404 12.079 15.9496 12 15.7507 12C14.643 11.9992 13.5743 12.4086 12.7507 13.1494V6.75C12.7507 5.95435 13.0668 5.19129 13.6294 4.62868C14.192 4.06607 14.9551 3.75 15.7507 3.75C16.5464 3.75 17.3094 4.06607 17.872 4.62868C18.4346 5.19129 18.7507 5.95435 18.7507 6.75V7.38094C18.7507 7.53596 18.7988 7.68716 18.8883 7.81374C18.9778 7.94033 19.1043 8.03608 19.2504 8.08781C20.0856 8.38184 20.7897 8.9619 21.2383 9.72529C21.6868 10.4887 21.8508 11.3862 21.7011 12.2588C21.5515 13.1315 21.0979 13.9231 20.4206 14.4934C19.7433 15.0637 18.8861 15.376 18.0007 15.375ZM19.5007 10.5C19.5007 10.6989 19.4217 10.8897 19.281 11.0303C19.1404 11.171 18.9496 11.25 18.7507 11.25H18.3757C17.4806 11.25 16.6222 10.8944 15.9892 10.2615C15.3563 9.62855 15.0007 8.77011 15.0007 7.875V7.5C15.0007 7.30109 15.0797 7.11032 15.2204 6.96967C15.361 6.82902 15.5518 6.75 15.7507 6.75C15.9496 6.75 16.1404 6.82902 16.281 6.96967C16.4217 7.11032 16.5007 7.30109 16.5007 7.5V7.875C16.5007 8.37228 16.6982 8.84919 17.0499 9.20083C17.4015 9.55246 17.8784 9.75 18.3757 9.75H18.7507C18.9496 9.75 19.1404 9.82902 19.281 9.96967C19.4217 10.1103 19.5007 10.3011 19.5007 10.5ZM5.6257 11.25H5.2507C5.05179 11.25 4.86103 11.171 4.72037 11.0303C4.57972 10.8897 4.5007 10.6989 4.5007 10.5C4.5007 10.3011 4.57972 10.1103 4.72037 9.96967C4.86103 9.82902 5.05179 9.75 5.2507 9.75H5.6257C6.12298 9.75 6.5999 9.55246 6.95153 9.20083C7.30316 8.84919 7.5007 8.37228 7.5007 7.875V7.5C7.5007 7.30109 7.57972 7.11032 7.72037 6.96967C7.86103 6.82902 8.05179 6.75 8.2507 6.75C8.44962 6.75 8.64038 6.82902 8.78103 6.96967C8.92169 7.11032 9.0007 7.30109 9.0007 7.5V7.875C9.0007 8.77011 8.64512 9.62855 8.01219 10.2615C7.37925 10.8944 6.52081 11.25 5.6257 11.25Z" fill="black" fill-opacity="0.5"/>
</svg>
