<svg width="32" height="32" viewBox="0 0 32 32" fill="none" xmlns="http://www.w3.org/2000/svg">
<path d="M23.5 11C22.981 10.9993 22.4684 11.115 22 11.3387V7.5C21.9998 6.89347 21.8421 6.29739 21.5422 5.7702C21.2422 5.24301 20.8105 4.80281 20.2892 4.49276C19.7679 4.1827 19.175 4.01344 18.5685 4.00156C17.9621 3.98968 17.363 4.1356 16.83 4.425C16.5734 3.63198 16.0422 2.95657 15.332 2.52029C14.6218 2.08401 13.7792 1.91551 12.9558 2.0451C12.1325 2.1747 11.3824 2.59388 10.8405 3.22722C10.2986 3.86057 10.0006 4.66649 10 5.5V6.33875C9.53164 6.11503 9.01905 5.99927 8.5 6C7.57174 6 6.6815 6.36875 6.02513 7.02513C5.36875 7.6815 5 8.57174 5 9.5V19C5 21.9174 6.15893 24.7153 8.22183 26.7782C10.2847 28.8411 13.0826 30 16 30C18.9174 30 21.7153 28.8411 23.7782 26.7782C25.8411 24.7153 27 21.9174 27 19V14.5C27 13.5717 26.6313 12.6815 25.9749 12.0251C25.3185 11.3687 24.4283 11 23.5 11ZM25 19C25 21.3869 24.0518 23.6761 22.364 25.364C20.6761 27.0518 18.3869 28 16 28C13.6131 28 11.3239 27.0518 9.63604 25.364C7.94821 23.6761 7 21.3869 7 19V9.5C7 9.10218 7.15804 8.72064 7.43934 8.43934C7.72064 8.15804 8.10218 8 8.5 8C8.89782 8 9.27936 8.15804 9.56066 8.43934C9.84196 8.72064 10 9.10218 10 9.5V15C10 15.2652 10.1054 15.5196 10.2929 15.7071C10.4804 15.8946 10.7348 16 11 16C11.2652 16 11.5196 15.8946 11.7071 15.7071C11.8946 15.5196 12 15.2652 12 15V5.5C12 5.10218 12.158 4.72064 12.4393 4.43934C12.7206 4.15804 13.1022 4 13.5 4C13.8978 4 14.2794 4.15804 14.5607 4.43934C14.842 4.72064 15 5.10218 15 5.5V14C15 14.2652 15.1054 14.5196 15.2929 14.7071C15.4804 14.8946 15.7348 15 16 15C16.2652 15 16.5196 14.8946 16.7071 14.7071C16.8946 14.5196 17 14.2652 17 14V7.5C17 7.10218 17.158 6.72064 17.4393 6.43934C17.7206 6.15804 18.1022 6 18.5 6C18.8978 6 19.2794 6.15804 19.5607 6.43934C19.842 6.72064 20 7.10218 20 7.5V16.0837C18.6027 16.3219 17.3346 17.0463 16.4197 18.1289C15.5048 19.2115 15.002 20.5826 15 22C15 22.2652 15.1054 22.5196 15.2929 22.7071C15.4804 22.8946 15.7348 23 16 23C16.2652 23 16.5196 22.8946 16.7071 22.7071C16.8946 22.5196 17 22.2652 17 22C17 20.9391 17.4214 19.9217 18.1716 19.1716C18.9217 18.4214 19.9391 18 21 18C21.2652 18 21.5196 17.8946 21.7071 17.7071C21.8946 17.5196 22 17.2652 22 17V14.5C22 14.1022 22.158 13.7206 22.4393 13.4393C22.7206 13.158 23.1022 13 23.5 13C23.8978 13 24.2794 13.158 24.5607 13.4393C24.842 13.7206 25 14.1022 25 14.5V19Z" fill="white" fill-opacity="0.75"/>
</svg>
