<svg width="40" height="40" viewBox="0 0 40 40" fill="none" xmlns="http://www.w3.org/2000/svg">
<path d="M35.5186 4.4813C35.2043 4.16713 34.8118 3.94245 34.3817 3.83039C33.9516 3.71834 33.4995 3.72297 33.0717 3.8438H33.0483L3.05768 12.9438C2.5708 13.0841 2.13805 13.3691 1.81678 13.7609C1.4955 14.1527 1.30087 14.6329 1.25868 15.1379C1.21649 15.6428 1.32873 16.1486 1.58052 16.5883C1.83232 17.0281 2.21178 17.3809 2.66862 17.6L15.9374 24.0625L22.3905 37.3235C22.5912 37.7518 22.9103 38.1137 23.3101 38.3665C23.7099 38.6193 24.1737 38.7524 24.6467 38.75C24.7186 38.75 24.7905 38.7469 24.8624 38.7407C25.3669 38.6998 25.8469 38.5056 26.2379 38.1842C26.6289 37.8627 26.9122 37.4293 27.0499 36.9422L36.1436 6.95161C36.1436 6.9438 36.1436 6.93599 36.1436 6.92817C36.266 6.50155 36.2726 6.05004 36.1628 5.62002C36.053 5.18999 35.8306 4.79696 35.5186 4.4813ZM24.6608 36.2266L24.653 36.2485V36.2375L18.3936 23.3782L25.8936 15.8782C26.1181 15.6418 26.2415 15.3272 26.2373 15.0012C26.2331 14.6753 26.1018 14.3638 25.8713 14.1333C25.6408 13.9028 25.3294 13.7715 25.0034 13.7673C24.6774 13.7631 24.3628 13.8865 24.1264 14.111L16.6264 21.611L3.76237 15.3516H3.75143H3.77331L33.7499 6.25005L24.6608 36.2266Z" fill="black" fill-opacity="0.5"/>
</svg>
