<svg width="40" height="40" viewBox="0 0 40 40" fill="none" xmlns="http://www.w3.org/2000/svg">
<path d="M33.75 6.25H21.25V3.75C21.25 3.41848 21.1183 3.10054 20.8839 2.86612C20.6495 2.6317 20.3315 2.5 20 2.5C19.6685 2.5 19.3505 2.6317 19.1161 2.86612C18.8817 3.10054 18.75 3.41848 18.75 3.75V6.25H6.25C5.58696 6.25 4.95107 6.51339 4.48223 6.98223C4.01339 7.45107 3.75 8.08696 3.75 8.75V27.5C3.75 28.163 4.01339 28.7989 4.48223 29.2678C4.95107 29.7366 5.58696 30 6.25 30H12.4L9.02344 34.2188C8.81624 34.4778 8.72041 34.8085 8.75704 35.1381C8.79367 35.4678 8.95975 35.7694 9.21875 35.9766C9.47775 36.1838 9.80845 36.2796 10.1381 36.243C10.4678 36.2063 10.7694 36.0403 10.9766 35.7813L15.6 30H24.4L29.0234 35.7813C29.126 35.9095 29.2529 36.0163 29.3967 36.0955C29.5406 36.1747 29.6987 36.2248 29.8619 36.243C30.0251 36.2611 30.1903 36.2469 30.3481 36.2012C30.5058 36.1555 30.653 36.0792 30.7812 35.9766C30.9095 35.874 31.0163 35.7471 31.0955 35.6033C31.1747 35.4594 31.2248 35.3013 31.243 35.1381C31.2611 34.9749 31.2469 34.8097 31.2012 34.6519C31.1555 34.4942 31.0792 34.347 30.9766 34.2188L27.6 30H33.75C34.413 30 35.0489 29.7366 35.5178 29.2678C35.9866 28.7989 36.25 28.163 36.25 27.5V8.75C36.25 8.08696 35.9866 7.45107 35.5178 6.98223C35.0489 6.51339 34.413 6.25 33.75 6.25ZM33.75 27.5H6.25V8.75H33.75V27.5ZM16.25 18.75V22.5C16.25 22.8315 16.1183 23.1495 15.8839 23.3839C15.6495 23.6183 15.3315 23.75 15 23.75C14.6685 23.75 14.3505 23.6183 14.1161 23.3839C13.8817 23.1495 13.75 22.8315 13.75 22.5V18.75C13.75 18.4185 13.8817 18.1005 14.1161 17.8661C14.3505 17.6317 14.6685 17.5 15 17.5C15.3315 17.5 15.6495 17.6317 15.8839 17.8661C16.1183 18.1005 16.25 18.4185 16.25 18.75ZM21.25 16.25V22.5C21.25 22.8315 21.1183 23.1495 20.8839 23.3839C20.6495 23.6183 20.3315 23.75 20 23.75C19.6685 23.75 19.3505 23.6183 19.1161 23.3839C18.8817 23.1495 18.75 22.8315 18.75 22.5V16.25C18.75 15.9185 18.8817 15.6005 19.1161 15.3661C19.3505 15.1317 19.6685 15 20 15C20.3315 15 20.6495 15.1317 20.8839 15.3661C21.1183 15.6005 21.25 15.9185 21.25 16.25ZM26.25 13.75V22.5C26.25 22.8315 26.1183 23.1495 25.8839 23.3839C25.6495 23.6183 25.3315 23.75 25 23.75C24.6685 23.75 24.3505 23.6183 24.1161 23.3839C23.8817 23.1495 23.75 22.8315 23.75 22.5V13.75C23.75 13.4185 23.8817 13.1005 24.1161 12.8661C24.3505 12.6317 24.6685 12.5 25 12.5C25.3315 12.5 25.6495 12.6317 25.8839 12.8661C26.1183 13.1005 26.25 13.4185 26.25 13.75Z" fill="black" fill-opacity="0.5"/>
</svg>
