<svg width="32" height="32" viewBox="0 0 32 32" fill="none" xmlns="http://www.w3.org/2000/svg">
<path d="M26.8572 22.515C26.7896 22.628 26.7003 22.7265 26.5945 22.8049C26.4888 22.8833 26.3686 22.94 26.2408 22.9718C26.113 23.0036 25.9803 23.0099 25.8501 22.9903C25.7199 22.9707 25.5949 22.9256 25.4822 22.8575L16.9997 17.7663V27C16.9997 27.2652 16.8943 27.5196 16.7068 27.7071C16.5192 27.8946 16.2649 28 15.9997 28C15.7344 28 15.4801 27.8946 15.2926 27.7071C15.105 27.5196 14.9997 27.2652 14.9997 27V17.7663L6.51467 22.8575C6.40201 22.9267 6.27676 22.9729 6.14614 22.9934C6.01552 23.0139 5.88214 23.0082 5.75371 22.9768C5.62528 22.9454 5.50435 22.8889 5.39792 22.8104C5.29149 22.732 5.20167 22.6332 5.13366 22.5198C5.06565 22.4065 5.0208 22.2807 5.0017 22.1499C4.9826 22.0191 4.98963 21.8858 5.02239 21.7577C5.05515 21.6296 5.11299 21.5093 5.19255 21.4037C5.27211 21.2981 5.37182 21.2093 5.48592 21.1425L14.0559 16L5.48592 10.8575C5.37182 10.7907 5.27211 10.7019 5.19255 10.5963C5.11299 10.4907 5.05515 10.3704 5.02239 10.2423C4.98963 10.1142 4.9826 9.98092 5.0017 9.85009C5.0208 9.71927 5.06565 9.59353 5.13366 9.48015C5.20167 9.36677 5.29149 9.268 5.39792 9.18956C5.50435 9.11112 5.62528 9.05457 5.75371 9.02317C5.88214 8.99177 6.01552 8.98614 6.14614 9.00663C6.27676 9.02711 6.40201 9.07329 6.51467 9.1425L14.9997 14.2338V5C14.9997 4.73478 15.105 4.48043 15.2926 4.29289C15.4801 4.10536 15.7344 4 15.9997 4C16.2649 4 16.5192 4.10536 16.7068 4.29289C16.8943 4.48043 16.9997 4.73478 16.9997 5V14.2338L25.4847 9.1425C25.5973 9.07329 25.7226 9.02711 25.8532 9.00663C25.9838 8.98614 26.1172 8.99177 26.2456 9.02317C26.3741 9.05457 26.495 9.11112 26.6014 9.18956C26.7078 9.268 26.7977 9.36677 26.8657 9.48015C26.9337 9.59353 26.9785 9.71927 26.9976 9.85009C27.0167 9.98092 27.0097 10.1142 26.9769 10.2423C26.9442 10.3704 26.8863 10.4907 26.8068 10.5963C26.7272 10.7019 26.6275 10.7907 26.5134 10.8575L17.9434 16L26.5134 21.1425C26.6262 21.21 26.7245 21.2991 26.8028 21.4046C26.8811 21.5101 26.9378 21.63 26.9697 21.7575C27.0017 21.885 27.0082 22.0175 26.9888 22.1475C26.9695 22.2774 26.9248 22.4023 26.8572 22.515Z" fill="black"/>
</svg>
