<svg width="20" height="20" viewBox="0 0 20 20" fill="none" xmlns="http://www.w3.org/2000/svg">
<path d="M9.75 5.25C8.85998 5.25 7.98995 5.51392 7.24993 6.00839C6.50991 6.50285 5.93314 7.20566 5.59254 8.02792C5.25195 8.85019 5.16283 9.75499 5.33647 10.6279C5.5101 11.5008 5.93868 12.3026 6.56802 12.932C7.19736 13.5613 7.99918 13.9899 8.87209 14.1635C9.74501 14.3372 10.6498 14.2481 11.4721 13.9075C12.2943 13.5669 12.9971 12.9901 13.4916 12.2501C13.9861 11.51 14.25 10.64 14.25 9.75C14.2488 8.55691 13.7743 7.41303 12.9306 6.56939C12.087 5.72575 10.9431 5.25124 9.75 5.25ZM9.75 12.75C9.15666 12.75 8.57664 12.5741 8.08329 12.2444C7.58994 11.9148 7.20542 11.4462 6.97836 10.8981C6.7513 10.3499 6.69189 9.74667 6.80764 9.16473C6.9234 8.58279 7.20912 8.04824 7.62868 7.62868C8.04824 7.20912 8.58279 6.9234 9.16473 6.80764C9.74667 6.69189 10.3499 6.7513 10.8981 6.97836C11.4462 7.20542 11.9148 7.58994 12.2444 8.08329C12.5741 8.57664 12.75 9.15666 12.75 9.75C12.75 10.5456 12.4339 11.3087 11.8713 11.8713C11.3087 12.4339 10.5456 12.75 9.75 12.75ZM14.25 0H5.25C3.85807 0.00148896 2.52358 0.555091 1.53933 1.53933C0.555091 2.52358 0.00148896 3.85807 0 5.25V14.25C0.00148896 15.6419 0.555091 16.9764 1.53933 17.9607C2.52358 18.9449 3.85807 19.4985 5.25 19.5H14.25C15.6419 19.4985 16.9764 18.9449 17.9607 17.9607C18.9449 16.9764 19.4985 15.6419 19.5 14.25V5.25C19.4985 3.85807 18.9449 2.52358 17.9607 1.53933C16.9764 0.555091 15.6419 0.00148896 14.25 0ZM18 14.25C18 15.2446 17.6049 16.1984 16.9016 16.9016C16.1984 17.6049 15.2446 18 14.25 18H5.25C4.25544 18 3.30161 17.6049 2.59835 16.9016C1.89509 16.1984 1.5 15.2446 1.5 14.25V5.25C1.5 4.25544 1.89509 3.30161 2.59835 2.59835C3.30161 1.89509 4.25544 1.5 5.25 1.5H14.25C15.2446 1.5 16.1984 1.89509 16.9016 2.59835C17.6049 3.30161 18 4.25544 18 5.25V14.25ZM15.75 4.875C15.75 5.0975 15.684 5.31501 15.5604 5.50002C15.4368 5.68502 15.2611 5.82922 15.0555 5.91436C14.85 5.99951 14.6238 6.02179 14.4055 5.97838C14.1873 5.93498 13.9868 5.82783 13.8295 5.6705C13.6722 5.51316 13.565 5.31271 13.5216 5.09448C13.4782 4.87625 13.5005 4.65005 13.5856 4.44448C13.6708 4.23891 13.815 4.06321 14 3.9396C14.185 3.81598 14.4025 3.75 14.625 3.75C14.9234 3.75 15.2095 3.86853 15.4205 4.0795C15.6315 4.29048 15.75 4.57663 15.75 4.875Z" fill="black"/>
</svg>
