<svg width="40" height="40" viewBox="0 0 40 40" fill="none" xmlns="http://www.w3.org/2000/svg">
<path d="M33.75 15C33.7514 12.6828 33.1671 10.4029 32.0515 8.3719C30.9359 6.34095 29.3251 4.62487 27.3688 3.38306C25.4125 2.14125 23.174 1.41399 20.8614 1.26883C18.5488 1.12367 16.2369 1.56531 14.1407 2.55274C12.0444 3.54017 10.2317 5.04135 8.87088 6.91686C7.51006 8.79237 6.6453 10.9814 6.35691 13.2805C6.06852 15.5797 6.36586 17.9145 7.2213 20.068C8.07675 22.2215 9.46255 24.1239 11.25 25.5984V37.5C11.2498 37.7132 11.3042 37.9228 11.4079 38.1091C11.5117 38.2953 11.6613 38.452 11.8426 38.5641C12.0239 38.6762 12.2309 38.7401 12.4439 38.7496C12.6569 38.7592 12.8687 38.7141 13.0594 38.6187L20 35.1562L26.9422 38.6265C27.1162 38.7098 27.3071 38.7521 27.5 38.75C27.8315 38.75 28.1495 38.6183 28.3839 38.3839C28.6183 38.1495 28.75 37.8315 28.75 37.5V25.5984C30.314 24.3103 31.5734 22.692 32.4378 20.8596C33.3023 19.0272 33.7504 17.0261 33.75 15ZM8.75 15C8.75 12.7749 9.4098 10.5999 10.646 8.74982C11.8821 6.89977 13.6391 5.45783 15.6948 4.60634C17.7505 3.75486 20.0125 3.53207 22.1948 3.96615C24.3771 4.40024 26.3816 5.47169 27.955 7.04503C29.5283 8.61838 30.5998 10.6229 31.0338 12.8052C31.4679 14.9875 31.2451 17.2495 30.3936 19.3052C29.5422 21.3608 28.1002 23.1179 26.2502 24.354C24.4001 25.5902 22.225 26.25 20 26.25C17.0173 26.2467 14.1578 25.0604 12.0487 22.9513C9.93964 20.8422 8.75331 17.9827 8.75 15ZM26.25 35.4781L20.5578 32.6328C20.3842 32.5459 20.1926 32.5007 19.9984 32.5007C19.8042 32.5007 19.6127 32.5459 19.4391 32.6328L13.75 35.4781V27.2453C15.6849 28.2343 17.827 28.75 20 28.75C22.173 28.75 24.3151 28.2343 26.25 27.2453V35.4781ZM20 23.75C21.7306 23.75 23.4223 23.2368 24.8612 22.2753C26.3002 21.3139 27.4217 19.9473 28.084 18.3485C28.7462 16.7496 28.9195 14.9903 28.5819 13.2929C28.2443 11.5956 27.4109 10.0365 26.1872 8.8128C24.9635 7.58909 23.4044 6.75574 21.707 6.41812C20.0097 6.08049 18.2504 6.25377 16.6515 6.91604C15.0527 7.57831 13.6861 8.69982 12.7246 10.1387C11.7632 11.5777 11.25 13.2694 11.25 15C11.2525 17.3199 12.1752 19.544 13.8156 21.1844C15.456 22.8248 17.6801 23.7475 20 23.75ZM20 8.74999C21.2361 8.74999 22.4445 9.11654 23.4723 9.8033C24.5001 10.4901 25.3012 11.4662 25.7742 12.6082C26.2473 13.7503 26.3711 15.0069 26.1299 16.2193C25.8888 17.4317 25.2935 18.5453 24.4194 19.4194C23.5453 20.2935 22.4317 20.8887 21.2193 21.1299C20.0069 21.3711 18.7503 21.2473 17.6082 20.7742C16.4662 20.3012 15.4901 19.5001 14.8033 18.4723C14.1166 17.4445 13.75 16.2361 13.75 15C13.75 13.3424 14.4085 11.7527 15.5806 10.5806C16.7527 9.40847 18.3424 8.74999 20 8.74999Z" fill="black" fill-opacity="0.5"/>
</svg>
