<svg width="164" height="172" viewBox="0 0 164 172" fill="none" xmlns="http://www.w3.org/2000/svg">
<path d="M210.46 118.426C209.809 119.513 208.95 120.461 207.932 121.216C206.914 121.971 205.757 122.517 204.527 122.823C203.298 123.129 202.02 123.19 200.767 123.001C199.514 122.812 198.31 122.378 197.225 121.723L115.581 72.7193V161.594C115.581 164.147 114.567 166.595 112.762 168.4C110.957 170.205 108.509 171.219 105.956 171.219C103.404 171.219 100.956 170.205 99.1505 168.4C97.3455 166.595 96.3314 164.147 96.3314 161.594V72.7193L14.6633 121.723C13.579 122.389 12.3734 122.833 11.1162 123.03C9.859 123.227 8.5752 123.173 7.33906 122.871C6.10292 122.569 4.93899 122.025 3.9146 121.27C2.89021 120.515 2.0257 119.564 1.3711 118.473C0.716496 117.381 0.284789 116.171 0.100958 114.912C-0.0828732 113.653 -0.0151759 112.37 0.300126 111.137C0.615428 109.904 1.17208 108.746 1.93787 107.729C2.70366 106.713 3.66339 105.859 4.76153 105.216L87.2478 55.7191L4.76153 6.22256C3.66339 5.57954 2.70366 4.72514 1.93787 3.70881C1.17208 2.69247 0.615428 1.53437 0.300126 0.301502C-0.0151759 -0.931366 -0.0828732 -2.21452 0.100958 -3.47372C0.284789 -4.73292 0.716496 -5.94318 1.3711 -7.03445C2.0257 -8.12572 2.89021 -9.07634 3.9146 -9.83133C4.93899 -10.5863 6.10292 -11.1307 7.33906 -11.4329C8.5752 -11.7351 9.859 -11.7892 11.1162 -11.5921C12.3734 -11.3949 13.579 -10.9504 14.6633 -10.2843L96.3314 38.719V-50.1559C96.3314 -52.7086 97.3455 -55.1567 99.1505 -56.9618C100.956 -58.7668 103.404 -59.7809 105.956 -59.7809C108.509 -59.7809 110.957 -58.7668 112.762 -56.9618C114.567 -55.1567 115.581 -52.7086 115.581 -50.1559V38.719L197.25 -10.2843C198.334 -10.9504 199.539 -11.3949 200.797 -11.5921C202.054 -11.7892 203.338 -11.7351 204.574 -11.4329C205.81 -11.1307 206.974 -10.5863 207.998 -9.83133C209.023 -9.07634 209.887 -8.12572 210.542 -7.03445C211.196 -5.94318 211.628 -4.73292 211.812 -3.47372C211.996 -2.21452 211.928 -0.931366 211.613 0.301502C211.297 1.53437 210.741 2.69247 209.975 3.70881C209.209 4.72514 208.249 5.57954 207.151 6.22256L124.665 55.7191L207.151 105.216C208.236 105.865 209.183 106.723 209.936 107.738C210.69 108.754 211.236 109.908 211.543 111.135C211.851 112.362 211.913 113.637 211.727 114.888C211.541 116.139 211.111 117.342 210.46 118.426Z" fill="black" fill-opacity="0.05"/>
</svg>
