<svg width="24" height="24" viewBox="0 0 24 24" fill="none" xmlns="http://www.w3.org/2000/svg">
<path d="M12.75 11.2501V16.5001C12.75 16.699 12.671 16.8897 12.5304 17.0304C12.3897 17.171 12.199 17.2501 12 17.2501C11.8011 17.2501 11.6104 17.171 11.4697 17.0304C11.3291 16.8897 11.25 16.699 11.25 16.5001V11.2501C11.25 11.0511 11.3291 10.8604 11.4697 10.7197C11.6104 10.5791 11.8011 10.5001 12 10.5001C12.199 10.5001 12.3897 10.5791 12.5304 10.7197C12.671 10.8604 12.75 11.0511 12.75 11.2501ZM16.2038 11.1751L15.6788 16.4251C15.6684 16.5234 15.6776 16.6227 15.7057 16.7175C15.7339 16.8122 15.7805 16.9005 15.8429 16.9771C15.9053 17.0538 15.9822 17.1174 16.0692 17.1642C16.1563 17.2111 16.2517 17.2402 16.35 17.2501C16.3753 17.2515 16.4007 17.2515 16.426 17.2501C16.6118 17.2498 16.7908 17.1807 16.9285 17.056C17.0662 16.9313 17.1527 16.7599 17.1713 16.5751L17.6963 11.3251C17.7162 11.1271 17.6566 10.9294 17.5308 10.7754C17.4049 10.6214 17.223 10.5237 17.025 10.5038C16.8271 10.4839 16.6294 10.5435 16.4754 10.6693C16.3214 10.7952 16.2237 10.9771 16.2038 11.1751ZM7.7963 11.1751C7.77641 10.9771 7.67871 10.7952 7.52469 10.6693C7.37068 10.5435 7.17297 10.4839 6.97505 10.5038C6.77713 10.5237 6.59522 10.6214 6.46934 10.7754C6.34345 10.9294 6.28391 11.1271 6.3038 11.3251L6.8288 16.5751C6.84746 16.7607 6.93464 16.9327 7.07332 17.0575C7.212 17.1824 7.39222 17.251 7.5788 17.2501C7.60409 17.2515 7.62944 17.2515 7.65474 17.2501C7.75274 17.2402 7.84784 17.2112 7.93461 17.1646C8.02138 17.118 8.09812 17.0547 8.16045 16.9785C8.22278 16.9022 8.26948 16.8144 8.29789 16.7201C8.32629 16.6258 8.33584 16.5268 8.32599 16.4288L7.7963 11.1751ZM22.4935 8.34943L21.0807 18.9488C21.0314 19.3085 20.8538 19.6383 20.5805 19.8775C20.3073 20.1166 19.9569 20.2489 19.5938 20.2501H4.4063C4.04322 20.2489 3.69278 20.1166 3.41955 19.8775C3.14632 19.6383 2.96871 19.3085 2.91943 18.9488L1.50661 8.34943C1.49245 8.24349 1.5011 8.13574 1.53197 8.03341C1.56285 7.93107 1.61525 7.83652 1.68564 7.75609C1.75604 7.67566 1.84282 7.61121 1.94016 7.56705C2.03751 7.52289 2.14316 7.50005 2.25005 7.50006H6.40974L11.4375 1.756C11.5079 1.67619 11.5945 1.61228 11.6915 1.5685C11.7885 1.52472 11.8936 1.50208 12 1.50208C12.1065 1.50208 12.2116 1.52472 12.3086 1.5685C12.4056 1.61228 12.4922 1.67619 12.5625 1.756L17.5904 7.50006H21.75C21.8569 7.50005 21.9626 7.52289 22.0599 7.56705C22.1573 7.61121 22.2441 7.67566 22.3145 7.75609C22.3849 7.83652 22.4372 7.93107 22.4681 8.03341C22.499 8.13574 22.5076 8.24349 22.4935 8.34943ZM8.40286 7.50006H15.5972L12 3.38912L8.40286 7.50006ZM20.8932 9.00006H3.10693L4.4063 18.7501H19.5938L20.8932 9.00006Z" fill="black"/>
</svg>
