<svg width="24" height="24" viewBox="0 0 24 24" fill="none" xmlns="http://www.w3.org/2000/svg">
<path d="M20.7228 3.14078C20.6366 3.07856 20.5361 3.03535 20.4292 3.01441C20.3222 2.99348 20.2115 2.99537 20.1054 3.01996L8.5854 5.68647C8.42964 5.72252 8.29136 5.80573 8.19254 5.9229C8.09372 6.04006 8.04003 6.18444 8.04 6.3331V15.5059C7.43937 15.1343 6.72186 14.9593 6.00146 15.0085C5.28105 15.0577 4.59908 15.3285 4.0639 15.7777C3.52872 16.2269 3.17101 16.8288 3.04762 17.4878C2.92423 18.1467 3.04223 18.825 3.38287 19.4148C3.72352 20.0046 4.26726 20.472 4.92772 20.7429C5.58818 21.0138 6.32748 21.0726 7.02814 20.9099C7.72881 20.7472 8.35066 20.3724 8.79489 19.845C9.23913 19.3176 9.48027 18.6679 9.48 17.9991V10.8537L19.56 8.52047V12.8394C18.9594 12.4678 18.2419 12.2927 17.5215 12.342C16.8011 12.3912 16.1191 12.662 15.5839 13.1112C15.0487 13.5604 14.691 14.1623 14.5676 14.8213C14.4442 15.4802 14.5622 16.1585 14.9029 16.7483C15.2435 17.3381 15.7873 17.8055 16.4477 18.0764C17.1082 18.3473 17.8475 18.4061 18.5481 18.2434C19.2488 18.0807 19.8707 17.7059 20.3149 17.1785C20.7591 16.6511 21.0003 16.0014 21 15.3326V3.66659C21 3.5652 20.9751 3.46514 20.927 3.37402C20.879 3.28291 20.8091 3.20314 20.7228 3.14078ZM6.24 19.6656C5.884 19.6656 5.53599 19.5679 5.23998 19.3848C4.94397 19.2016 4.71326 18.9414 4.57702 18.6368C4.44078 18.3323 4.40514 17.9972 4.47459 17.6739C4.54404 17.3507 4.71548 17.0537 4.96721 16.8206C5.21895 16.5876 5.53968 16.4288 5.88884 16.3645C6.23801 16.3002 6.59993 16.3332 6.92883 16.4594C7.25774 16.5855 7.53886 16.7991 7.73665 17.0732C7.93444 17.3472 8.04 17.6695 8.04 17.9991C8.04 18.4411 7.85036 18.865 7.5128 19.1775C7.17523 19.4901 6.71739 19.6656 6.24 19.6656ZM9.48 9.47874V6.8539L19.56 4.5207V7.14555L9.48 9.47874ZM17.76 16.9991C17.404 16.9991 17.056 16.9014 16.76 16.7183C16.464 16.5351 16.2333 16.2749 16.097 15.9703C15.9608 15.6658 15.9251 15.3307 15.9946 15.0074C16.064 14.6841 16.2355 14.3872 16.4872 14.1541C16.7389 13.921 17.0597 13.7623 17.4088 13.698C17.758 13.6337 18.1199 13.6667 18.4488 13.7929C18.7777 13.919 19.0589 14.1326 19.2566 14.4067C19.4544 14.6807 19.56 15.0029 19.56 15.3326C19.56 15.7746 19.3704 16.1985 19.0328 16.511C18.6952 16.8235 18.2374 16.9991 17.76 16.9991Z" fill="black"/>
</svg>
