<svg width="24" height="24" viewBox="0 0 24 24" fill="none" xmlns="http://www.w3.org/2000/svg">
<path d="M16.5002 10.5H14.2502C14.0513 10.5 13.8605 10.421 13.7199 10.2803C13.5792 10.1397 13.5002 9.94891 13.5002 9.75C13.5002 9.55109 13.5792 9.36032 13.7199 9.21967C13.8605 9.07902 14.0513 9 14.2502 9H16.5002C16.6991 9 16.8899 9.07902 17.0305 9.21967C17.1712 9.36032 17.2502 9.55109 17.2502 9.75C17.2502 9.94891 17.1712 10.1397 17.0305 10.2803C16.8899 10.421 16.6991 10.5 16.5002 10.5ZM9.75022 9H9.00022V8.25C9.00022 8.05109 8.9212 7.86032 8.78055 7.71967C8.63989 7.57902 8.44913 7.5 8.25022 7.5C8.0513 7.5 7.86054 7.57902 7.71989 7.71967C7.57923 7.86032 7.50022 8.05109 7.50022 8.25V9H6.75022C6.5513 9 6.36054 9.07902 6.21989 9.21967C6.07923 9.36032 6.00022 9.55109 6.00022 9.75C6.00022 9.94891 6.07923 10.1397 6.21989 10.2803C6.36054 10.421 6.5513 10.5 6.75022 10.5H7.50022V11.25C7.50022 11.4489 7.57923 11.6397 7.71989 11.7803C7.86054 11.921 8.0513 12 8.25022 12C8.44913 12 8.63989 11.921 8.78055 11.7803C8.9212 11.6397 9.00022 11.4489 9.00022 11.25V10.5H9.75022C9.94913 10.5 10.1399 10.421 10.2805 10.2803C10.4212 10.1397 10.5002 9.94891 10.5002 9.75C10.5002 9.55109 10.4212 9.36032 10.2805 9.21967C10.1399 9.07902 9.94913 9 9.75022 9ZM22.639 18.8109C22.3563 19.2146 21.9887 19.5514 21.5619 19.7978C21.1352 20.0442 20.6597 20.1941 20.1688 20.2371C19.6779 20.2801 19.1835 20.2151 18.7205 20.0466C18.2574 19.8781 17.8368 19.6103 17.4883 19.2619C17.4771 19.2506 17.4658 19.2394 17.4555 19.2272L13.7327 15H10.264L6.5449 19.2272L6.51209 19.2619C5.87853 19.8941 5.02024 20.2494 4.12522 20.25C3.6325 20.2498 3.1458 20.1418 2.69931 19.9334C2.25281 19.7251 1.85735 19.4215 1.5407 19.044C1.22406 18.6665 0.993902 18.2242 0.866409 17.7483C0.738916 17.2724 0.717176 16.7743 0.802717 16.2891C0.802265 16.2847 0.802265 16.2803 0.802717 16.2759L2.3374 8.3925C2.56581 7.09225 3.24515 5.91409 4.25605 5.06504C5.26695 4.21599 6.54475 3.75037 7.8649 3.75H16.1252C17.4414 3.7521 18.7153 4.21506 19.7257 5.05849C20.7361 5.90193 21.4192 7.07258 21.6565 8.36719C21.6565 8.37281 21.6565 8.37844 21.6565 8.38406L23.1912 16.275C23.1916 16.2794 23.1916 16.2838 23.1912 16.2881C23.2706 16.7243 23.2627 17.1718 23.1679 17.6049C23.0731 18.0379 22.8933 18.4479 22.639 18.8109ZM16.1252 13.5C17.2192 13.5 18.2684 13.0654 19.042 12.2918C19.8156 11.5182 20.2502 10.469 20.2502 9.375C20.2502 8.28098 19.8156 7.23177 19.042 6.45818C18.2684 5.6846 17.2192 5.25 16.1252 5.25H7.8649C6.89642 5.25087 5.95927 5.59325 5.21832 6.21691C4.47737 6.84057 3.98009 7.70556 3.81397 8.65969V8.67188L2.27834 16.5553C2.21046 16.9461 2.26829 17.3484 2.44351 17.7043C2.61873 18.0602 2.9023 18.3514 3.25345 18.5359C3.6046 18.7204 4.00523 18.7889 4.39772 18.7313C4.79021 18.6738 5.15433 18.4932 5.43772 18.2156L9.36772 13.7541C9.43808 13.6742 9.52464 13.6103 9.62162 13.5665C9.7186 13.5227 9.8238 13.5 9.93022 13.5H16.1252ZM21.7221 16.5553L20.9027 12.3366C20.3988 13.1503 19.6955 13.822 18.8595 14.2881C18.0235 14.7542 17.0824 14.9992 16.1252 15H15.7315L18.5627 18.2166C18.7762 18.4242 19.0358 18.5783 19.3204 18.6661C19.6049 18.7539 19.9062 18.773 20.1996 18.7219C20.6883 18.6356 21.1229 18.3591 21.4081 17.953C21.6933 17.5469 21.8059 17.0443 21.7212 16.5553H21.7221Z" fill="black"/>
</svg>
