<svg width="24" height="24" viewBox="0 0 24 24" fill="none" xmlns="http://www.w3.org/2000/svg">
<path d="M16.4998 20.2501C16.4998 20.449 16.4208 20.6397 16.2801 20.7804C16.1395 20.921 15.9487 21.0001 15.7498 21.0001H2.2498C2.05089 21.0001 1.86013 20.921 1.71947 20.7804C1.57882 20.6397 1.4998 20.449 1.4998 20.2501C1.4998 20.0511 1.57882 19.8604 1.71947 19.7197C1.86013 19.5791 2.05089 19.5001 2.2498 19.5001H15.7498C15.9487 19.5001 16.1395 19.5791 16.2801 19.7197C16.4208 19.8604 16.4998 20.0511 16.4998 20.2501ZM23.2367 8.73287C23.2171 8.83726 23.1755 8.93628 23.1147 9.02339C23.0539 9.11051 22.9754 9.18372 22.8842 9.23818L9.06449 17.4882C8.48843 17.826 7.83292 18.0046 7.16512 18.0057C6.21385 18.0046 5.29895 17.6401 4.60762 16.9866L4.59637 16.9754L1.21855 13.6688C1.03984 13.4991 0.905694 13.288 0.827982 13.0541C0.750271 12.8202 0.731388 12.5708 0.773002 12.3278C0.814617 12.0849 0.915447 11.856 1.06658 11.6613C1.21771 11.4666 1.41448 11.3122 1.63949 11.2116L1.92074 11.0738C2.09836 10.9866 2.30323 10.9731 2.49074 11.0363L5.14012 11.9307L7.03105 10.7869L4.98449 8.80037C4.80044 8.63081 4.66174 8.41789 4.58102 8.18101C4.5003 7.94413 4.48013 7.69082 4.52235 7.44416C4.56456 7.19749 4.66782 6.96531 4.82271 6.76875C4.97761 6.5722 5.17922 6.41752 5.40918 6.31881L5.43918 6.30662L6.10949 6.05256C6.2785 5.98954 6.46455 5.98954 6.63355 6.05256L11.6904 7.91068L16.5251 5.02506C17.2956 4.56651 18.2053 4.40057 19.088 4.55756C19.9708 4.71455 20.7675 5.18399 21.3326 5.88006L21.3439 5.89412L23.0914 8.13381C23.1566 8.21767 23.2034 8.31444 23.2284 8.41772C23.2535 8.521 23.2563 8.62842 23.2367 8.73287ZM21.3861 8.38599L20.1673 6.82318C19.8281 6.40821 19.3513 6.12871 18.8235 6.03547C18.2957 5.94223 17.7519 6.04143 17.2911 6.31506L12.1536 9.38256C12.0573 9.43961 11.9496 9.47458 11.8383 9.48496C11.7269 9.49534 11.6146 9.48085 11.5095 9.44256L6.3748 7.55443L5.9998 7.69787L6.01949 7.71662L8.77199 10.3876C8.85419 10.4674 8.917 10.5651 8.95558 10.673C8.99415 10.7809 9.00748 10.8963 8.99454 11.0102C8.98159 11.124 8.94272 11.2334 8.8809 11.33C8.81908 11.4265 8.73596 11.5075 8.63793 11.5669L5.61824 13.3941C5.52483 13.4505 5.42023 13.4859 5.31174 13.4977C5.20325 13.5095 5.09349 13.4975 4.99012 13.4626L2.3023 12.556L2.28449 12.5654L2.2498 12.5813C2.25432 12.5845 2.25841 12.5883 2.26199 12.5926L5.63699 15.8982C5.98921 16.2292 6.4392 16.4371 6.91954 16.4909C7.39988 16.5446 7.8847 16.4413 8.30137 16.1963L21.3861 8.38599Z" fill="black"/>
</svg>
