<svg width="24" height="24" viewBox="0 0 24 24" fill="none" xmlns="http://www.w3.org/2000/svg">
<path d="M19.2496 9.71906L17.2087 2.78812C17.1629 2.63284 17.0682 2.49652 16.9386 2.39953C16.809 2.30254 16.6515 2.25008 16.4896 2.25H7.51022C7.34834 2.25008 7.19083 2.30254 7.06123 2.39953C6.93163 2.49652 6.83688 2.63284 6.79115 2.78812L4.75022 9.71906C4.43 10.7814 4.41324 11.9121 4.70183 12.9835C4.99042 14.0548 5.57285 15.0241 6.38334 15.7819C7.71656 17.0322 9.42958 17.8007 11.2499 17.9653V21.75H8.2499C8.05099 21.75 7.86023 21.829 7.71957 21.9697C7.57892 22.1103 7.4999 22.3011 7.4999 22.5C7.4999 22.6989 7.57892 22.8897 7.71957 23.0303C7.86023 23.171 8.05099 23.25 8.2499 23.25H15.7499C15.9488 23.25 16.1396 23.171 16.2802 23.0303C16.4209 22.8897 16.4999 22.6989 16.4999 22.5C16.4999 22.3011 16.4209 22.1103 16.2802 21.9697C16.1396 21.829 15.9488 21.75 15.7499 21.75H12.7499V17.9653C14.5702 17.8006 16.2832 17.032 17.6165 15.7819C18.427 15.0241 19.0094 14.0548 19.298 12.9835C19.5866 11.9121 19.5698 10.7814 19.2496 9.71906ZM8.07084 3.75H15.929L17.8124 10.1428C17.8208 10.1709 17.8283 10.1991 17.8358 10.2272C15.8277 10.9472 13.5665 10.0772 12.3393 9.45563C9.97771 8.26031 8.10272 8.10844 6.7199 8.33719L8.07084 3.75ZM16.5937 14.6859C15.3483 15.8521 13.706 16.5009 11.9999 16.5009C10.2938 16.5009 8.65153 15.8521 7.40615 14.6859C6.79966 14.1176 6.36415 13.391 6.1488 12.5882C5.93344 11.7854 5.94681 10.9384 6.1874 10.1428L6.22959 10.0003C7.35459 9.61969 9.1424 9.51844 11.6605 10.7944C12.7058 11.3241 14.3943 11.9991 16.2008 11.9991C16.8046 12.002 17.4058 11.9199 17.9868 11.7553C17.9103 12.8734 17.4124 13.9207 16.5937 14.6859Z" fill="black"/>
</svg>
