<svg width="24" height="24" viewBox="0 0 24 24" fill="none" xmlns="http://www.w3.org/2000/svg">
<path d="M6.75 13.5H3C2.80109 13.5 2.61032 13.421 2.46967 13.2803C2.32902 13.1397 2.25 12.9489 2.25 12.75C2.25 12.5511 2.32902 12.3603 2.46967 12.2197C2.61032 12.079 2.80109 12 3 12H6.34875L7.62562 10.0837C7.69409 9.98087 7.78691 9.89651 7.89584 9.83816C8.00477 9.7798 8.12643 9.74927 8.25 9.74927C8.37357 9.74927 8.49523 9.7798 8.60416 9.83816C8.71309 9.89651 8.80591 9.98087 8.87438 10.0837L11.25 13.6462L12.1256 12.3337C12.1942 12.231 12.287 12.1468 12.396 12.0886C12.5049 12.0303 12.6265 11.9999 12.75 12H15C15.1989 12 15.3897 12.079 15.5303 12.2197C15.671 12.3603 15.75 12.5511 15.75 12.75C15.75 12.9489 15.671 13.1397 15.5303 13.2803C15.3897 13.421 15.1989 13.5 15 13.5H13.1512L11.8744 15.4162C11.8059 15.5191 11.7131 15.6035 11.6042 15.6618C11.4952 15.7202 11.3736 15.7507 11.25 15.7507C11.1264 15.7507 11.0048 15.7202 10.8958 15.6618C10.7869 15.6035 10.6941 15.5191 10.6256 15.4162L8.25 11.8519L7.37438 13.1644C7.30604 13.2675 7.21328 13.3521 7.10434 13.4106C6.99541 13.4692 6.87368 13.4999 6.75 13.5ZM16.6875 3.75C14.7516 3.75 13.0566 4.5825 12 5.98969C10.9434 4.5825 9.24844 3.75 7.3125 3.75C5.77146 3.75174 4.29404 4.36468 3.20436 5.45436C2.11468 6.54404 1.50174 8.02146 1.5 9.5625C1.5 9.63281 1.5 9.70312 1.5 9.77344C1.50622 9.97235 1.5912 10.1606 1.73624 10.2969C1.88129 10.4332 2.07453 10.5062 2.27344 10.5C2.47235 10.4938 2.66065 10.4088 2.7969 10.2638C2.93316 10.1187 3.00622 9.92547 3 9.72656C3 9.67219 3 9.61687 3 9.5625C3.00149 8.41921 3.45632 7.32317 4.26475 6.51475C5.07317 5.70632 6.16921 5.25149 7.3125 5.25C9.13594 5.25 10.6669 6.22125 11.3062 7.78125C11.3628 7.91881 11.4589 8.03646 11.5824 8.11926C11.7059 8.20206 11.8513 8.24627 12 8.24627C12.1487 8.24627 12.2941 8.20206 12.4176 8.11926C12.5411 8.03646 12.6372 7.91881 12.6937 7.78125C13.3331 6.21844 14.8641 5.25 16.6875 5.25C17.8308 5.25149 18.9268 5.70632 19.7353 6.51475C20.5437 7.32317 20.9985 8.41921 21 9.5625C21 14.5884 13.71 19.1391 12 20.1375C10.9847 19.5459 8.00344 17.7 5.74875 15.2428C5.68215 15.1702 5.60189 15.1114 5.51255 15.0697C5.42322 15.0281 5.32657 15.0045 5.22811 15.0002C5.12965 14.996 5.03131 15.0111 4.93872 15.0449C4.84612 15.0786 4.76107 15.1303 4.68844 15.1969C4.6158 15.2635 4.55699 15.3437 4.51537 15.4331C4.47375 15.5224 4.45014 15.6191 4.44587 15.7175C4.44161 15.816 4.45677 15.9143 4.49051 16.0069C4.52425 16.0995 4.5759 16.1845 4.6425 16.2572C7.56469 19.4447 11.4797 21.5709 11.6447 21.66C11.7539 21.7188 11.876 21.7495 12 21.7495C12.124 21.7495 12.2461 21.7188 12.3553 21.66C12.7697 21.4369 22.5 16.125 22.5 9.5625C22.4983 8.02146 21.8853 6.54404 20.7956 5.45436C19.706 4.36468 18.2285 3.75174 16.6875 3.75Z" fill="black"/>
</svg>
