<svg width="235" height="225" viewBox="0 0 235 225" fill="none" xmlns="http://www.w3.org/2000/svg">
<path d="M232.324 231.438C231.479 232.85 230.364 234.081 229.042 235.061C227.719 236.041 226.217 236.75 224.62 237.148C223.023 237.546 221.363 237.624 219.736 237.379C218.109 237.134 216.546 236.569 215.137 235.719L109.106 172.078V287.5C109.106 290.815 107.789 293.995 105.445 296.339C103.1 298.683 99.9209 300 96.6057 300C93.2905 300 90.1111 298.683 87.7669 296.339C85.4227 293.995 84.1057 290.815 84.1057 287.5V172.078L-21.9568 235.719C-23.365 236.584 -24.9307 237.161 -26.5634 237.417C-28.1961 237.673 -29.8634 237.603 -31.4688 237.21C-33.0741 236.818 -34.5857 236.111 -35.9161 235.13C-37.2465 234.15 -38.3692 232.915 -39.2194 231.498C-40.0695 230.081 -40.6301 228.509 -40.8689 226.874C-41.1076 225.238 -41.0197 223.572 -40.6102 221.971C-40.2007 220.37 -39.4778 218.866 -38.4833 217.546C-37.4888 216.226 -36.2423 215.116 -34.8162 214.281L72.3088 150L-34.8162 85.7188C-36.2423 84.8837 -37.4888 83.7741 -38.4833 82.4541C-39.4778 81.1342 -40.2007 79.6302 -40.6102 78.0291C-41.0197 76.4279 -41.1076 74.7615 -40.8689 73.1262C-40.6301 71.4909 -40.0695 69.9191 -39.2194 68.5019C-38.3692 67.0846 -37.2465 65.8501 -35.9161 64.8695C-34.5857 63.889 -33.0741 63.1821 -31.4688 62.7896C-29.8634 62.3971 -28.1961 62.3268 -26.5634 62.5829C-24.9307 62.8389 -23.365 63.4162 -21.9568 64.2812L84.1057 127.922V12.5C84.1057 9.18479 85.4227 6.00537 87.7669 3.66117C90.1111 1.31696 93.2905 0 96.6057 0C99.9209 0 103.1 1.31696 105.445 3.66117C107.789 6.00537 109.106 9.18479 109.106 12.5V127.922L215.168 64.2812C216.576 63.4162 218.142 62.8389 219.775 62.5829C221.407 62.3268 223.075 62.3971 224.68 62.7896C226.285 63.1821 227.797 63.889 229.128 64.8695C230.458 65.8501 231.581 67.0846 232.431 68.5019C233.281 69.9191 233.842 71.4909 234.08 73.1262C234.319 74.7615 234.231 76.4279 233.822 78.0291C233.412 79.6302 232.689 81.1342 231.695 82.4541C230.7 83.7741 229.454 84.8837 228.028 85.7188L120.903 150L228.028 214.281C229.437 215.125 230.666 216.238 231.645 217.557C232.623 218.876 233.333 220.376 233.732 221.969C234.131 223.562 234.212 225.219 233.97 226.843C233.729 228.468 233.17 230.029 232.324 231.438Z" fill="white" fill-opacity="0.1"/>
</svg>
