<svg width="21" height="21" viewBox="0 0 21 21" fill="none" xmlns="http://www.w3.org/2000/svg">
<path d="M20.25 9.75H19.4681C19.2882 7.63073 18.3645 5.64338 16.8606 4.13943C15.3566 2.63549 13.3693 1.71185 11.25 1.53188V0.75C11.25 0.551088 11.171 0.360322 11.0303 0.21967C10.8897 0.0790176 10.6989 0 10.5 0C10.3011 0 10.1103 0.0790176 9.96967 0.21967C9.82902 0.360322 9.75 0.551088 9.75 0.75V1.53188C7.63073 1.71185 5.64338 2.63549 4.13943 4.13943C2.63549 5.64338 1.71185 7.63073 1.53188 9.75H0.75C0.551088 9.75 0.360322 9.82902 0.21967 9.96967C0.0790176 10.1103 0 10.3011 0 10.5C0 10.6989 0.0790176 10.8897 0.21967 11.0303C0.360322 11.171 0.551088 11.25 0.75 11.25H1.53188C1.71185 13.3693 2.63549 15.3566 4.13943 16.8606C5.64338 18.3645 7.63073 19.2882 9.75 19.4681V20.25C9.75 20.4489 9.82902 20.6397 9.96967 20.7803C10.1103 20.921 10.3011 21 10.5 21C10.6989 21 10.8897 20.921 11.0303 20.7803C11.171 20.6397 11.25 20.4489 11.25 20.25V19.4681C13.3693 19.2882 15.3566 18.3645 16.8606 16.8606C18.3645 15.3566 19.2882 13.3693 19.4681 11.25H20.25C20.4489 11.25 20.6397 11.171 20.7803 11.0303C20.921 10.8897 21 10.6989 21 10.5C21 10.3011 20.921 10.1103 20.7803 9.96967C20.6397 9.82902 20.4489 9.75 20.25 9.75ZM11.25 17.9625V17.25C11.25 17.0511 11.171 16.8603 11.0303 16.7197C10.8897 16.579 10.6989 16.5 10.5 16.5C10.3011 16.5 10.1103 16.579 9.96967 16.7197C9.82902 16.8603 9.75 17.0511 9.75 17.25V17.9625C8.02957 17.787 6.42235 17.0233 5.1995 15.8005C3.97666 14.5777 3.21305 12.9704 3.0375 11.25H3.75C3.94891 11.25 4.13968 11.171 4.28033 11.0303C4.42098 10.8897 4.5 10.6989 4.5 10.5C4.5 10.3011 4.42098 10.1103 4.28033 9.96967C4.13968 9.82902 3.94891 9.75 3.75 9.75H3.0375C3.21305 8.02957 3.97666 6.42235 5.1995 5.1995C6.42235 3.97666 8.02957 3.21305 9.75 3.0375V3.75C9.75 3.94891 9.82902 4.13968 9.96967 4.28033C10.1103 4.42098 10.3011 4.5 10.5 4.5C10.6989 4.5 10.8897 4.42098 11.0303 4.28033C11.171 4.13968 11.25 3.94891 11.25 3.75V3.0375C12.9704 3.21305 14.5777 3.97666 15.8005 5.1995C17.0233 6.42235 17.787 8.02957 17.9625 9.75H17.25C17.0511 9.75 16.8603 9.82902 16.7197 9.96967C16.579 10.1103 16.5 10.3011 16.5 10.5C16.5 10.6989 16.579 10.8897 16.7197 11.0303C16.8603 11.171 17.0511 11.25 17.25 11.25H17.9625C17.787 12.9704 17.0233 14.5777 15.8005 15.8005C14.5777 17.0233 12.9704 17.787 11.25 17.9625ZM10.5 6.75C9.75832 6.75 9.0333 6.96993 8.41661 7.38199C7.79993 7.79404 7.31928 8.37971 7.03545 9.06494C6.75162 9.75016 6.67736 10.5042 6.82205 11.2316C6.96675 11.959 7.3239 12.6272 7.84835 13.1517C8.3728 13.6761 9.04098 14.0333 9.76841 14.1779C10.4958 14.3226 11.2498 14.2484 11.9351 13.9645C12.6203 13.6807 13.206 13.2001 13.618 12.5834C14.0301 11.9667 14.25 11.2417 14.25 10.5C14.25 9.50544 13.8549 8.55161 13.1517 7.84835C12.4484 7.14509 11.4946 6.75 10.5 6.75ZM10.5 12.75C10.055 12.75 9.61998 12.618 9.24997 12.3708C8.87996 12.1236 8.59157 11.7722 8.42127 11.361C8.25097 10.9499 8.20642 10.4975 8.29323 10.061C8.38005 9.62459 8.59434 9.22368 8.90901 8.90901C9.22368 8.59434 9.62459 8.38005 10.061 8.29323C10.4975 8.20642 10.9499 8.25097 11.361 8.42127C11.7722 8.59157 12.1236 8.87996 12.3708 9.24997C12.618 9.61998 12.75 10.055 12.75 10.5C12.75 11.0967 12.5129 11.669 12.091 12.091C11.669 12.5129 11.0967 12.75 10.5 12.75Z" fill="black"/>
</svg>
