<svg width="276" height="300" viewBox="0 0 276 300" fill="none" xmlns="http://www.w3.org/2000/svg">
<path d="M273.324 231.437C272.479 232.85 271.364 234.081 270.042 235.061C268.719 236.041 267.217 236.75 265.62 237.148C264.023 237.546 262.363 237.624 260.736 237.379C259.109 237.134 257.546 236.569 256.137 235.719L150.106 172.078V287.5C150.106 290.815 148.789 293.995 146.445 296.339C144.1 298.683 140.921 300 137.606 300C134.29 300 131.111 298.683 128.767 296.339C126.423 293.995 125.106 290.815 125.106 287.5L125.106 172.078L19.0432 235.719C17.635 236.584 16.0693 237.161 14.4366 237.417C12.8039 237.673 11.1366 237.603 9.53125 237.21C7.92588 236.818 6.41427 236.111 5.0839 235.13C3.75352 234.15 2.63078 232.915 1.78065 231.498C0.930514 230.081 0.369856 228.509 0.131114 226.874C-0.107628 225.238 -0.019709 223.572 0.389774 221.971C0.799258 220.37 1.52218 218.866 2.51671 217.546C3.51125 216.226 4.75765 215.116 6.18381 214.281L113.309 150L6.18381 85.7188C4.75765 84.8837 3.51125 83.7741 2.51671 82.4541C1.52218 81.1342 0.799258 79.6302 0.389774 78.0291C-0.019709 76.4279 -0.107628 74.7615 0.131114 73.1262C0.369856 71.4909 0.930514 69.9191 1.78065 68.5019C2.63078 67.0846 3.75352 65.8501 5.0839 64.8695C6.41427 63.889 7.92588 63.1821 9.53125 62.7896C11.1366 62.3971 12.8039 62.3268 14.4366 62.5829C16.0693 62.8389 17.635 63.4162 19.0432 64.2812L125.106 127.922L125.106 12.5C125.106 9.18479 126.423 6.00537 128.767 3.66117C131.111 1.31696 134.29 0 137.606 0C140.921 0 144.1 1.31696 146.445 3.66117C148.789 6.00537 150.106 9.18479 150.106 12.5V127.922L256.168 64.2812C257.576 63.4162 259.142 62.8389 260.775 62.5829C262.407 62.3268 264.075 62.3971 265.68 62.7896C267.285 63.1821 268.797 63.889 270.128 64.8695C271.458 65.8501 272.581 67.0846 273.431 68.5019C274.281 69.9191 274.842 71.4909 275.08 73.1262C275.319 74.7615 275.231 76.4279 274.822 78.0291C274.412 79.6302 273.689 81.1342 272.695 82.4541C271.7 83.7741 270.454 84.8837 269.028 85.7187L161.903 150L269.028 214.281C270.437 215.125 271.666 216.238 272.645 217.557C273.623 218.876 274.333 220.376 274.732 221.969C275.131 223.562 275.212 225.219 274.97 226.843C274.729 228.468 274.17 230.029 273.324 231.437Z" fill="white" fill-opacity="0.1"/>
</svg>
