<svg width="24" height="24" viewBox="0 0 24 24" fill="none" xmlns="http://www.w3.org/2000/svg">
<path d="M23.9998 12.75C23.9998 12.9489 23.9207 13.1397 23.7801 13.2804C23.6394 13.421 23.4487 13.5 23.2498 13.5H21.7498V15C21.7498 15.1989 21.6707 15.3897 21.5301 15.5304C21.3894 15.671 21.1987 15.75 20.9998 15.75C20.8008 15.75 20.6101 15.671 20.4694 15.5304C20.3288 15.3897 20.2498 15.1989 20.2498 15V13.5H18.7498C18.5508 13.5 18.3601 13.421 18.2194 13.2804C18.0788 13.1397 17.9998 12.9489 17.9998 12.75C17.9998 12.5511 18.0788 12.3603 18.2194 12.2197C18.3601 12.079 18.5508 12 18.7498 12H20.2498V10.5C20.2498 10.3011 20.3288 10.1103 20.4694 9.9697C20.6101 9.82904 20.8008 9.75003 20.9998 9.75003C21.1987 9.75003 21.3894 9.82904 21.5301 9.9697C21.6707 10.1103 21.7498 10.3011 21.7498 10.5V12H23.2498C23.4487 12 23.6394 12.079 23.7801 12.2197C23.9207 12.3603 23.9998 12.5511 23.9998 12.75ZM18.5744 18.2672C18.7025 18.4196 18.7648 18.6167 18.7475 18.815C18.7303 19.0133 18.635 19.1967 18.4826 19.3247C18.3302 19.4528 18.1331 19.515 17.9348 19.4978C17.7365 19.4806 17.5531 19.3853 17.4251 19.2328C15.5388 16.9866 12.9457 15.75 10.1248 15.75C7.30382 15.75 4.71069 16.9866 2.82444 19.2328C2.69639 19.3851 2.51309 19.4803 2.31486 19.4975C2.11663 19.5146 1.91971 19.4523 1.76741 19.3242C1.61512 19.1962 1.51993 19.0129 1.50279 18.8147C1.48565 18.6164 1.54796 18.4195 1.67601 18.2672C3.07663 16.6003 4.81851 15.4163 6.75444 14.7825C5.57873 14.0502 4.67349 12.955 4.17569 11.6624C3.67789 10.3698 3.61461 8.95031 3.99543 7.61858C4.37624 6.28684 5.18043 5.11537 6.28632 4.28138C7.39222 3.44739 8.73964 2.99628 10.1248 2.99628C11.5099 2.99628 12.8573 3.44739 13.9632 4.28138C15.0691 5.11537 15.8733 6.28684 16.2541 7.61858C16.6349 8.95031 16.5716 10.3698 16.0738 11.6624C15.576 12.955 14.6708 14.0502 13.4951 14.7825C15.431 15.4163 17.1729 16.6003 18.5744 18.2672ZM10.1248 14.25C11.0889 14.25 12.0315 13.9641 12.8332 13.4284C13.6349 12.8928 14.2597 12.1314 14.6287 11.2406C14.9976 10.3498 15.0942 9.36962 14.9061 8.42396C14.718 7.4783 14.2537 6.60966 13.5719 5.92788C12.8901 5.2461 12.0215 4.7818 11.0758 4.5937C10.1302 4.40559 9.14996 4.50214 8.25917 4.87111C7.36838 5.24009 6.60701 5.86493 6.07134 6.66662C5.53567 7.46831 5.24976 8.41084 5.24976 9.37503C5.25124 10.6675 5.76534 11.9066 6.67925 12.8205C7.59317 13.7344 8.83228 14.2485 10.1248 14.25Z" fill="black"/>
</svg>
