<svg width="144" height="155" viewBox="0 0 144 155" fill="none" xmlns="http://www.w3.org/2000/svg">
<path d="M161.261 114.388C160.763 115.221 160.105 115.948 159.325 116.526C158.544 117.104 157.658 117.523 156.716 117.757C155.774 117.992 154.794 118.038 153.834 117.894C152.874 117.749 151.952 117.416 151.121 116.914L88.5624 79.3662V147.465C88.5624 149.421 87.7854 151.297 86.4023 152.68C85.0192 154.063 83.1433 154.84 81.1874 154.84C79.2314 154.84 77.3555 154.063 75.9725 152.68C74.5894 151.297 73.8124 149.421 73.8124 147.465V79.3662L11.2355 116.914C10.4047 117.425 9.48089 117.765 8.51759 117.916C7.5543 118.067 6.57061 118.026 5.62344 117.794C4.67627 117.563 3.78442 117.146 2.9995 116.567C2.21458 115.989 1.55216 115.26 1.05058 114.424C0.549003 113.588 0.218215 112.66 0.0773573 111.696C-0.0635003 110.731 -0.0116283 109.748 0.229967 108.803C0.471562 107.858 0.898084 106.971 1.48486 106.192C2.07164 105.413 2.80702 104.759 3.64845 104.266L66.8522 66.3401L3.64845 28.4142C2.80702 27.9215 2.07164 27.2668 1.48486 26.488C0.898084 25.7093 0.471562 24.8219 0.229967 23.8772C-0.0116283 22.9326 -0.0635003 21.9494 0.0773573 20.9845C0.218215 20.0197 0.549003 19.0924 1.05058 18.2562C1.55216 17.42 2.21458 16.6916 2.9995 16.1131C3.78442 15.5346 4.67627 15.1175 5.62344 14.8859C6.57061 14.6544 7.5543 14.6129 8.51759 14.764C9.48089 14.915 10.4047 15.2556 11.2355 15.766L73.8124 53.314V-14.7849C73.8124 -16.7409 74.5894 -18.6167 75.9725 -19.9998C77.3555 -21.3829 79.2314 -22.1599 81.1874 -22.1599C83.1433 -22.1599 85.0192 -21.3829 86.4023 -19.9998C87.7854 -18.6167 88.5624 -16.7409 88.5624 -14.7849V53.314L151.139 15.766C151.97 15.2556 152.894 14.915 153.857 14.764C154.82 14.6129 155.804 14.6544 156.751 14.8859C157.698 15.1175 158.59 15.5346 159.375 16.1131C160.16 16.6916 160.823 17.42 161.324 18.2562C161.826 19.0924 162.156 20.0197 162.297 20.9845C162.438 21.9494 162.386 22.9326 162.145 23.8772C161.903 24.8219 161.477 25.7093 160.89 26.488C160.303 27.2668 159.568 27.9215 158.726 28.4142L95.5225 66.3401L158.726 104.266C159.558 104.764 160.283 105.421 160.86 106.199C161.438 106.977 161.856 107.862 162.092 108.802C162.327 109.742 162.375 110.719 162.232 111.678C162.09 112.636 161.76 113.557 161.261 114.388Z" fill="white" fill-opacity="0.1"/>
</svg>
