<svg width="183" height="183" viewBox="0 0 183 183" fill="none" xmlns="http://www.w3.org/2000/svg">
<path d="M252.045 129.033C251.266 130.331 250.237 131.463 249.018 132.364C247.798 133.265 246.413 133.917 244.94 134.282C243.468 134.648 241.937 134.72 240.436 134.495C238.936 134.269 237.495 133.751 236.195 132.969L138.419 74.4623V180.572C138.419 183.62 137.205 186.543 135.043 188.698C132.881 190.853 129.95 192.064 126.892 192.064C123.835 192.064 120.903 190.853 118.742 188.698C116.58 186.543 115.366 183.62 115.366 180.572V74.4623L17.5606 132.969C16.2621 133.764 14.8182 134.295 13.3126 134.53C11.807 134.765 10.2696 134.701 8.7892 134.34C7.30881 133.979 5.91489 133.329 4.68809 132.428C3.46129 131.526 2.42596 130.391 1.64202 129.088C0.858069 127.786 0.341061 126.341 0.120906 124.837C-0.0992482 123.334 -0.0181745 121.802 0.359429 120.33C0.737032 118.858 1.40367 117.475 2.32077 116.262C3.23788 115.048 4.38725 114.028 5.70237 113.261L104.487 54.1654L5.70237 -4.92983C4.38725 -5.69755 3.23788 -6.71763 2.32077 -7.93106C1.40367 -9.14449 0.737032 -10.5272 0.359429 -11.9991C-0.0181745 -13.4711 -0.0992482 -15.0031 0.120906 -16.5065C0.341061 -18.0099 0.858069 -19.4548 1.64202 -20.7577C2.42596 -22.0606 3.46129 -23.1956 4.68809 -24.097C5.91489 -24.9984 7.30881 -25.6483 8.7892 -26.0092C10.2696 -26.37 11.807 -26.4346 13.3126 -26.1992C14.8182 -25.9638 16.2621 -25.4331 17.5606 -24.6378L115.366 33.8685V-72.2415C115.366 -75.2892 116.58 -78.2122 118.742 -80.3672C120.903 -82.5223 123.835 -83.733 126.892 -83.733C129.95 -83.733 132.881 -82.5223 135.043 -80.3672C137.205 -78.2122 138.419 -75.2892 138.419 -72.2415V33.8685L236.224 -24.6378C237.523 -25.4331 238.967 -25.9638 240.472 -26.1992C241.978 -26.4346 243.515 -26.37 244.996 -26.0092C246.476 -25.6483 247.87 -24.9984 249.097 -24.097C250.324 -23.1956 251.359 -22.0606 252.143 -20.7577C252.927 -19.4548 253.444 -18.0099 253.664 -16.5065C253.884 -15.0031 253.803 -13.4711 253.425 -11.9991C253.048 -10.5272 252.381 -9.14449 251.464 -7.93106C250.547 -6.71763 249.398 -5.69755 248.083 -4.92983L149.298 54.1654L248.083 113.261C249.382 114.036 250.515 115.06 251.418 116.272C252.321 117.485 252.974 118.863 253.342 120.328C253.71 121.793 253.785 123.315 253.563 124.809C253.34 126.303 252.824 127.738 252.045 129.033Z" fill="white" fill-opacity="0.1"/>
</svg>
