<svg width="166" height="146" viewBox="0 0 166 146" fill="none" xmlns="http://www.w3.org/2000/svg">
<path d="M164.663 145.227C164.133 146.113 163.433 146.886 162.603 147.501C161.774 148.116 160.831 148.561 159.829 148.81C158.827 149.06 157.785 149.109 156.764 148.955C155.743 148.801 154.762 148.447 153.878 147.914L87.3437 107.979V180.406C87.3437 182.487 86.5173 184.482 85.0463 185.953C83.5753 187.424 81.5802 188.25 79.4999 188.25C77.4196 188.25 75.4245 187.424 73.9535 185.953C72.4826 184.482 71.6562 182.487 71.6562 180.406V107.979L5.10194 147.914C4.21832 148.456 3.23583 148.819 2.21131 148.979C1.18679 149.14 0.140574 149.096 -0.866797 148.85C-1.87417 148.603 -2.8227 148.16 -3.65751 147.544C-4.49232 146.929 -5.19684 146.154 -5.7303 145.265C-6.26376 144.376 -6.61557 143.389 -6.76538 142.363C-6.91519 141.337 -6.86002 140.291 -6.60307 139.287C-6.34612 138.282 -5.89249 137.338 -5.26842 136.51C-4.64435 135.682 -3.86223 134.986 -2.96731 134.461L64.2536 94.125L-2.96731 53.7885C-3.86223 53.2645 -4.64435 52.5682 -5.26842 51.74C-5.89249 50.9117 -6.34612 49.9679 -6.60307 48.9632C-6.86002 47.9585 -6.91519 46.9128 -6.76538 45.8867C-6.61557 44.8605 -6.26376 43.8742 -5.7303 42.9849C-5.19684 42.0956 -4.49232 41.3209 -3.65751 40.7056C-2.8227 40.0904 -1.87417 39.6468 -0.866797 39.4005C0.140574 39.1542 1.18679 39.1101 2.21131 39.2707C3.23583 39.4314 4.21832 39.7936 5.10194 40.3365L71.6562 80.271V7.84375C71.6562 5.76346 72.4826 3.76837 73.9535 2.29738C75.4245 0.826394 77.4196 0 79.4999 0C81.5802 0 83.5753 0.826394 85.0463 2.29738C86.5173 3.76837 87.3437 5.76346 87.3437 7.84375V80.271L153.898 40.3365C154.782 39.7936 155.764 39.4314 156.789 39.2707C157.813 39.1101 158.859 39.1542 159.867 39.4005C160.874 39.6468 161.823 40.0904 162.657 40.7056C163.492 41.3209 164.197 42.0956 164.73 42.9849C165.264 43.8742 165.615 44.8605 165.765 45.8867C165.915 46.9128 165.86 47.9585 165.603 48.9632C165.346 49.9679 164.892 50.9117 164.268 51.74C163.644 52.5682 162.862 53.2645 161.967 53.7885L94.7462 94.125L161.967 134.461C162.851 134.991 163.623 135.69 164.237 136.517C164.851 137.345 165.296 138.286 165.546 139.285C165.797 140.285 165.848 141.325 165.696 142.344C165.545 143.364 165.194 144.343 164.663 145.227Z" fill="black" fill-opacity="0.05"/>
</svg>
