<svg width="193" height="177" viewBox="0 0 193 177" fill="none" xmlns="http://www.w3.org/2000/svg">
<path d="M191.327 129.006C190.736 129.995 189.955 130.857 189.029 131.543C188.104 132.229 187.052 132.725 185.934 133.003C184.816 133.282 183.654 133.337 182.515 133.165C181.376 132.994 180.282 132.599 179.296 132.003L105.074 87.4547V168.25C105.074 170.571 104.152 172.796 102.511 174.437C100.87 176.078 98.6446 177 96.324 177C94.0033 177 91.7777 176.078 90.1368 174.437C88.4959 172.796 87.574 170.571 87.574 168.25V87.4547L13.3302 132.003C12.3445 132.609 11.2485 133.013 10.1056 133.192C8.96272 133.371 7.79564 133.322 6.67187 133.047C5.54811 132.773 4.48999 132.278 3.55873 131.591C2.62747 130.905 1.84155 130.041 1.24645 129.049C0.65136 128.057 0.258899 126.956 0.0917798 125.812C-0.0753393 124.667 -0.0137963 123.5 0.272842 122.38C0.55948 121.259 1.06552 120.206 1.7617 119.282C2.45787 118.358 3.33036 117.581 4.32867 116.997L79.3162 72L4.32867 27.0031C3.33036 26.4186 2.45787 25.6418 1.7617 24.7179C1.06552 23.794 0.55948 22.7411 0.272842 21.6203C-0.0137963 20.4996 -0.0753393 19.3331 0.0917798 18.1883C0.258899 17.0436 0.65136 15.9434 1.24645 14.9513C1.84155 13.9592 2.62747 13.095 3.55873 12.4087C4.48999 11.7223 5.54811 11.2275 6.67187 10.9527C7.79564 10.6779 8.96272 10.6288 10.1056 10.808C11.2485 10.9872 12.3445 11.3913 13.3302 11.9969L87.574 56.5453V-24.25C87.574 -26.5706 88.4959 -28.7962 90.1368 -30.4372C91.7777 -32.0781 94.0033 -33 96.324 -33C98.6446 -33 100.87 -32.0781 102.511 -30.4372C104.152 -28.7962 105.074 -26.5706 105.074 -24.25V56.5453L179.318 11.9969C180.303 11.3913 181.399 10.9872 182.542 10.808C183.685 10.6288 184.852 10.6779 185.976 10.9527C187.1 11.2275 188.158 11.7223 189.089 12.4087C190.021 13.095 190.806 13.9592 191.402 14.9513C191.997 15.9434 192.389 17.0436 192.556 18.1883C192.723 19.3331 192.662 20.4996 192.375 21.6203C192.088 22.7411 191.582 23.794 190.886 24.7179C190.19 25.6418 189.318 26.4186 188.319 27.0031L113.332 72L188.319 116.997C189.306 117.588 190.166 118.367 190.851 119.29C191.536 120.214 192.033 121.263 192.312 122.378C192.591 123.494 192.648 124.653 192.479 125.79C192.31 126.928 191.919 128.02 191.327 129.006Z" fill="black" fill-opacity="0.03"/>
</svg>
