<svg width="42" height="40" viewBox="0 0 42 40" fill="none" xmlns="http://www.w3.org/2000/svg">
<path d="M34.5887 14.3616C34.6027 14.1003 34.6127 13.837 34.6127 13.5638C34.6127 9.96644 33.1785 6.51644 30.6256 3.97274C28.0727 1.42904 24.6103 0 21 0C17.3897 0 13.9273 1.42904 11.3744 3.97274C8.82151 6.51644 7.38732 9.96644 7.38732 13.5638C7.38732 13.8291 7.38732 14.0924 7.41135 14.3616C5.76866 15.1993 4.31403 16.3609 3.13585 17.776C1.95766 19.1911 1.08053 20.8301 0.557739 22.5935C0.0349476 24.3568 -0.122584 26.2076 0.0947147 28.0335C0.312014 29.8593 0.899606 31.6221 1.82179 33.2147C2.74397 34.8073 3.98149 36.1965 5.45915 37.2978C6.93682 38.399 8.62376 39.1895 10.4175 39.6211C12.2112 40.0526 14.0743 40.1163 15.8935 39.8083C17.7127 39.5002 19.4501 38.8268 21 37.829C22.5499 38.8268 24.2873 39.5002 26.1065 39.8083C27.9257 40.1163 29.7888 40.0526 31.5825 39.6211C33.3762 39.1895 35.0632 38.399 36.5408 37.2978C38.0185 36.1965 39.256 34.8073 40.1782 33.2147C41.1004 31.6221 41.688 29.8593 41.9053 28.0335C42.1226 26.2076 41.965 24.3568 41.4423 22.5935C40.9195 20.8301 40.0423 19.1911 38.8642 17.776C37.686 16.3609 36.2313 15.1993 34.5887 14.3616ZM21 33.8037C19.056 31.953 17.9078 29.4233 17.797 26.7466C19.8951 27.2546 22.0848 27.2546 24.183 26.7466C24.0774 29.4205 22.9367 31.9498 21 33.8037ZM21 23.9361C20.047 23.9358 19.0986 23.8049 18.1814 23.5471C18.6834 21.7605 19.6567 20.1405 21 18.8556C22.3433 20.1405 23.3166 21.7605 23.8186 23.5471C22.9014 23.8049 21.953 23.9358 21 23.9361ZM15.2406 22.1987C13.1643 20.8212 11.6511 18.7488 10.9747 16.3563C13.427 15.6668 16.0482 15.8996 18.3395 17.0106C16.9294 18.4867 15.8704 20.2598 15.2406 22.1987ZM23.6605 17.0006C25.953 15.893 28.5742 15.6637 31.0253 16.3563C30.3511 18.7525 28.8377 20.8287 26.7594 22.2087C26.1324 20.2627 25.0731 18.4825 23.6605 17.0006ZM21 3.19148C23.6889 3.19228 26.2735 4.22864 28.2135 6.08395C30.1534 7.93925 31.2986 10.4699 31.4097 13.1469C29.6497 12.7203 27.8217 12.6496 26.0338 12.9387C24.2459 13.2279 22.5343 13.8711 21 14.8304C19.467 13.8724 17.7571 13.2299 15.971 12.9408C14.1849 12.6516 12.3588 12.7217 10.6003 13.1469C10.7113 10.4716 11.8551 7.94243 13.7929 6.08739C15.7307 4.23236 18.3128 3.19485 21 3.19148ZM3.3836 26.3297C3.38446 24.62 3.80946 22.937 4.62079 21.4305C5.43211 19.924 6.6046 18.6407 8.03393 17.6947C9.1259 21.0589 11.4866 23.8688 14.6181 25.5318C14.604 25.7931 14.594 26.0564 14.594 26.3297C14.5926 29.8035 15.9339 33.1444 18.3395 35.6588C16.7527 36.4264 14.9961 36.7796 13.2347 36.6853C11.4733 36.591 9.76483 36.0522 8.26969 35.1196C6.77455 34.187 5.54178 32.8911 4.68711 31.3535C3.83243 29.816 3.38389 28.0873 3.3836 26.3297ZM28.2067 36.702C26.6313 36.7039 25.0763 36.3471 23.6605 35.6588C26.0661 33.1444 27.4074 29.8035 27.406 26.3297C27.406 26.0644 27.396 25.8011 27.3819 25.5318C30.515 23.8669 32.8759 21.0539 33.9661 17.6868C35.8297 18.9188 37.2455 20.7161 38.0039 22.8126C38.7622 24.909 38.8228 27.1931 38.1766 29.3265C37.5305 31.4599 36.2119 33.3292 34.4162 34.6576C32.6205 35.986 30.4432 36.7029 28.2067 36.702Z" fill="black" fill-opacity="0.75"/>
</svg>
