<svg width="40" height="40" viewBox="0 0 40 40" fill="none" xmlns="http://www.w3.org/2000/svg">
<path d="M25.8848 14.1156C26.001 14.2317 26.0932 14.3696 26.1561 14.5213C26.219 14.6731 26.2514 14.8357 26.2514 15C26.2514 15.1643 26.219 15.3269 26.1561 15.4787C26.0932 15.6304 26.001 15.7683 25.8848 15.8844L15.8848 25.8844C15.7687 26.0005 15.6308 26.0926 15.4791 26.1555C15.3273 26.2183 15.1647 26.2507 15.0004 26.2507C14.8362 26.2507 14.6736 26.2183 14.5218 26.1555C14.3701 26.0926 14.2322 26.0005 14.1161 25.8844C13.9999 25.7682 13.9078 25.6304 13.845 25.4786C13.7821 25.3269 13.7498 25.1642 13.7498 25C13.7498 24.8357 13.7821 24.6731 13.845 24.5214C13.9078 24.3696 13.9999 24.2318 14.1161 24.1156L24.1161 14.1156C24.2322 13.9994 24.37 13.9072 24.5218 13.8443C24.6735 13.7814 24.8362 13.749 25.0004 13.749C25.1647 13.749 25.3274 13.7814 25.4791 13.8443C25.6309 13.9072 25.7687 13.9994 25.8848 14.1156ZM33.6879 6.31249C32.8754 5.49988 31.9108 4.85528 30.8491 4.4155C29.7875 3.97571 28.6496 3.74936 27.5004 3.74936C26.3513 3.74936 25.2134 3.97571 24.1518 4.4155C23.0901 4.85528 22.1255 5.49988 21.3129 6.31249L16.6161 11.0078C16.3815 11.2424 16.2498 11.5605 16.2498 11.8922C16.2498 12.2239 16.3815 12.542 16.6161 12.7766C16.8506 13.0111 17.1687 13.1429 17.5004 13.1429C17.8321 13.1429 18.1503 13.0111 18.3848 12.7766L23.0817 8.08905C24.2581 6.93851 25.8407 6.2983 27.4862 6.30736C29.1317 6.31642 30.7072 6.97402 31.8708 8.13746C33.0344 9.30089 33.6923 10.8763 33.7017 12.5217C33.711 14.1672 33.0711 15.75 31.9208 16.9266L27.2223 21.6234C26.9878 21.8578 26.8559 22.1757 26.8558 22.5072C26.8556 22.8388 26.9872 23.1568 27.2215 23.3914C27.4559 23.6259 27.7738 23.7578 28.1054 23.7579C28.4369 23.7581 28.755 23.6265 28.9895 23.3922L33.6879 18.6875C34.5006 17.875 35.1452 16.9103 35.5849 15.8487C36.0247 14.787 36.2511 13.6491 36.2511 12.5C36.2511 11.3508 36.0247 10.213 35.5849 9.1513C35.1452 8.08965 34.5006 7.12501 33.6879 6.31249ZM21.6161 27.2219L16.9192 31.9187C16.3412 32.5097 15.6517 32.9802 14.8906 33.3028C14.1296 33.6255 13.312 33.794 12.4854 33.7986C11.6588 33.8031 10.8394 33.6436 10.0749 33.3294C9.31029 33.0151 8.61565 32.5523 8.03118 31.9677C7.4467 31.3831 6.984 30.6884 6.66986 29.9238C6.35572 29.1591 6.19639 28.3398 6.20109 27.5131C6.20578 26.6865 6.37442 25.869 6.69723 25.108C7.02004 24.347 7.49061 23.6576 8.0817 23.0797L12.777 18.3844C13.0116 18.1498 13.1433 17.8317 13.1433 17.5C13.1433 17.1683 13.0116 16.8502 12.777 16.6156C12.5425 16.3811 12.2243 16.2493 11.8926 16.2493C11.5609 16.2493 11.2428 16.3811 11.0083 16.6156L6.31295 21.3125C4.67192 22.9535 3.75 25.1792 3.75 27.5C3.75 29.8208 4.67192 32.0465 6.31295 33.6875C7.95397 35.3285 10.1797 36.2504 12.5004 36.2504C14.8212 36.2504 17.0469 35.3285 18.6879 33.6875L23.3848 28.989C23.6192 28.7545 23.7507 28.4365 23.7506 28.1049C23.7504 27.7733 23.6186 27.4554 23.384 27.2211C23.1495 26.9867 22.8314 26.8552 22.4999 26.8553C22.1683 26.8555 21.8504 26.9873 21.6161 27.2219Z" fill="black" fill-opacity="0.75"/>
</svg>
