<svg width="40" height="40" viewBox="0 0 40 40" fill="none" xmlns="http://www.w3.org/2000/svg">
<path d="M37.1344 27.8656C37.2506 27.9817 37.3428 28.1196 37.4057 28.2713C37.4686 28.4231 37.501 28.5857 37.501 28.75C37.501 28.9143 37.4686 29.0769 37.4057 29.2287C37.3428 29.3804 37.2506 29.5183 37.1344 29.6344L33.3844 33.3844C33.1498 33.6189 32.8317 33.7507 32.5 33.7507C32.1683 33.7507 31.8502 33.6189 31.6156 33.3844C31.3811 33.1498 31.2493 32.8317 31.2493 32.5C31.2493 32.1683 31.3811 31.8502 31.6156 31.6156L33.2328 30H31.3969C29.6064 29.9985 27.8421 29.5704 26.2501 28.7512C24.658 27.9319 23.2841 26.7451 22.2422 25.2891L15.7234 16.1641C14.913 15.0316 13.8444 14.1086 12.6061 13.4714C11.3679 12.8342 9.99568 12.5012 8.60312 12.5H5C4.66848 12.5 4.35054 12.3683 4.11612 12.1339C3.8817 11.8995 3.75 11.5815 3.75 11.25C3.75 10.9185 3.8817 10.6005 4.11612 10.3661C4.35054 10.1317 4.66848 10 5 10H8.60312C10.3936 10.0015 12.1579 10.4296 13.7499 11.2488C15.342 12.0681 16.7159 13.2549 17.7578 14.7109L24.2766 23.8359C25.087 24.9684 26.1556 25.8914 27.3939 26.5286C28.6321 27.1658 30.0043 27.4988 31.3969 27.5H33.2328L31.6156 25.8844C31.3811 25.6498 31.2493 25.3317 31.2493 25C31.2493 24.6683 31.3811 24.3502 31.6156 24.1156C31.8502 23.8811 32.1683 23.7493 32.5 23.7493C32.8317 23.7493 33.1498 23.8811 33.3844 24.1156L37.1344 27.8656ZM22.3437 16.7188C22.4773 16.8142 22.6284 16.8823 22.7883 16.9194C22.9482 16.9564 23.1139 16.9616 23.2758 16.9346C23.4377 16.9076 23.5928 16.849 23.732 16.7621C23.8713 16.6752 23.9921 16.5617 24.0875 16.4281L24.275 16.1672C25.0853 15.034 26.154 14.1102 27.3925 13.4725C28.6311 12.8347 30.0038 12.5014 31.3969 12.5H33.2328L31.6156 14.1156C31.3811 14.3502 31.2493 14.6683 31.2493 15C31.2493 15.3317 31.3811 15.6498 31.6156 15.8844C31.8502 16.1189 32.1683 16.2507 32.5 16.2507C32.8317 16.2507 33.1498 16.1189 33.3844 15.8844L37.1344 12.1344C37.2506 12.0183 37.3428 11.8804 37.4057 11.7287C37.4686 11.5769 37.501 11.4143 37.501 11.25C37.501 11.0857 37.4686 10.9231 37.4057 10.7713C37.3428 10.6196 37.2506 10.4817 37.1344 10.3656L33.3844 6.61563C33.1498 6.38107 32.8317 6.24931 32.5 6.24931C32.1683 6.24931 31.8502 6.38107 31.6156 6.61563C31.3811 6.85018 31.2493 7.1683 31.2493 7.5C31.2493 7.83171 31.3811 8.14982 31.6156 8.38438L33.2328 10H31.3969C29.6064 10.0015 27.8421 10.4296 26.2501 11.2488C24.658 12.0681 23.2841 13.2549 22.2422 14.7109L22.0547 14.9719C21.9587 15.1055 21.89 15.2567 21.8526 15.4169C21.8152 15.577 21.8097 15.743 21.8366 15.9053C21.8635 16.0676 21.9221 16.223 22.0091 16.3626C22.0961 16.5022 22.2099 16.6232 22.3437 16.7188ZM17.6562 23.2812C17.5227 23.1858 17.3716 23.1177 17.2117 23.0806C17.0518 23.0436 16.8861 23.0384 16.7242 23.0654C16.5623 23.0924 16.4072 23.151 16.268 23.2379C16.1287 23.3248 16.0079 23.4383 15.9125 23.5719L15.725 23.8328C14.9147 24.966 13.846 25.8898 12.6075 26.5275C11.3689 27.1653 9.99622 27.4987 8.60312 27.5H5C4.66848 27.5 4.35054 27.6317 4.11612 27.8661C3.8817 28.1005 3.75 28.4185 3.75 28.75C3.75 29.0815 3.8817 29.3995 4.11612 29.6339C4.35054 29.8683 4.66848 30 5 30H8.60312C10.3936 29.9985 12.1579 29.5704 13.7499 28.7512C15.342 27.9319 16.7159 26.7451 17.7578 25.2891L17.9453 25.0281C18.0413 24.8945 18.11 24.7433 18.1474 24.5831C18.1848 24.423 18.1903 24.257 18.1634 24.0947C18.1365 23.9324 18.0779 23.777 17.9909 23.6374C17.9039 23.4978 17.7901 23.3768 17.6562 23.2812Z" fill="black" fill-opacity="0.75"/>
</svg>
