<svg width="174" height="171" viewBox="0 0 174 171" fill="none" xmlns="http://www.w3.org/2000/svg">
<path d="M191.327 162.006C190.736 162.995 189.955 163.857 189.029 164.543C188.104 165.229 187.052 165.725 185.934 166.003C184.816 166.282 183.654 166.337 182.515 166.165C181.376 165.994 180.282 165.599 179.296 165.003L105.074 120.455V201.25C105.074 203.571 104.152 205.796 102.511 207.437C100.87 209.078 98.6446 210 96.324 210C94.0033 210 91.7777 209.078 90.1368 207.437C88.4959 205.796 87.574 203.571 87.574 201.25V120.455L13.3302 165.003C12.3445 165.609 11.2485 166.013 10.1056 166.192C8.96272 166.371 7.79564 166.322 6.67187 166.047C5.54811 165.773 4.48999 165.278 3.55873 164.591C2.62747 163.905 1.84155 163.041 1.24645 162.049C0.65136 161.057 0.258899 159.956 0.0917798 158.812C-0.0753393 157.667 -0.0137963 156.5 0.272842 155.38C0.55948 154.259 1.06552 153.206 1.7617 152.282C2.45787 151.358 3.33036 150.581 4.32867 149.997L79.3162 105L4.32867 60.0031C3.33036 59.4186 2.45787 58.6418 1.7617 57.7179C1.06552 56.794 0.55948 55.7411 0.272842 54.6203C-0.0137963 53.4996 -0.0753393 52.3331 0.0917798 51.1883C0.258899 50.0436 0.65136 48.9434 1.24645 47.9513C1.84155 46.9592 2.62747 46.095 3.55873 45.4087C4.48999 44.7223 5.54811 44.2275 6.67187 43.9527C7.79564 43.6779 8.96272 43.6288 10.1056 43.808C11.2485 43.9872 12.3445 44.3913 13.3302 44.9969L87.574 89.5453V8.75C87.574 6.42936 88.4959 4.20376 90.1368 2.56282C91.7777 0.921874 94.0033 0 96.324 0C98.6446 0 100.87 0.921874 102.511 2.56282C104.152 4.20376 105.074 6.42936 105.074 8.75V89.5453L179.318 44.9969C180.303 44.3913 181.399 43.9872 182.542 43.808C183.685 43.6288 184.852 43.6779 185.976 43.9527C187.1 44.2275 188.158 44.7223 189.089 45.4087C190.021 46.095 190.806 46.9592 191.402 47.9513C191.997 48.9434 192.389 50.0436 192.556 51.1883C192.723 52.3331 192.662 53.4996 192.375 54.6203C192.088 55.7411 191.582 56.794 190.886 57.7179C190.19 58.6418 189.318 59.4186 188.319 60.0031L113.332 105L188.319 149.997C189.306 150.588 190.166 151.367 190.851 152.29C191.536 153.214 192.033 154.263 192.312 155.378C192.591 156.494 192.648 157.653 192.479 158.79C192.31 159.928 191.919 161.02 191.327 162.006Z" fill="black" fill-opacity="0.03"/>
</svg>
