<svg width="141" height="109" viewBox="0 0 141 109" fill="none" xmlns="http://www.w3.org/2000/svg">
<path d="M139.561 136.548C139.063 137.381 138.404 138.108 137.624 138.686C136.844 139.264 135.958 139.682 135.016 139.917C134.073 140.152 133.094 140.198 132.134 140.054C131.174 139.909 130.252 139.576 129.421 139.074L66.8622 101.526V169.625C66.8622 171.581 66.0852 173.457 64.7021 174.84C63.319 176.223 61.4431 177 59.4872 177C57.5312 177 55.6553 176.223 54.2723 174.84C52.8892 173.457 52.1122 171.581 52.1122 169.625V101.526L-10.4647 139.074C-11.2955 139.584 -12.2193 139.925 -13.1826 140.076C-14.1459 140.227 -15.1296 140.186 -16.0768 139.954C-17.0239 139.723 -17.9158 139.305 -18.7007 138.727C-19.4856 138.148 -20.148 137.42 -20.6496 136.584C-21.1512 135.748 -21.482 134.82 -21.6228 133.856C-21.7637 132.891 -21.7118 131.908 -21.4702 130.963C-21.2286 130.018 -20.8021 129.131 -20.2153 128.352C-19.6286 127.573 -18.8932 126.919 -18.0517 126.426L45.152 88.5L-18.0517 50.5741C-18.8932 50.0814 -19.6286 49.4267 -20.2153 48.6479C-20.8021 47.8692 -21.2286 46.9818 -21.4702 46.0372C-21.7118 45.0925 -21.7637 44.1093 -21.6228 43.1444C-21.482 42.1796 -21.1512 41.2523 -20.6496 40.4161C-20.148 39.5799 -19.4856 38.8515 -18.7007 38.273C-17.9158 37.6945 -17.0239 37.2774 -16.0768 37.0458C-15.1296 36.8143 -14.1459 36.7728 -13.1826 36.9239C-12.2193 37.0749 -11.2955 37.4155 -10.4647 37.9259L52.1122 75.4739V7.375C52.1122 5.41903 52.8892 3.54317 54.2723 2.16009C55.6553 0.777008 57.5312 0 59.4872 0C61.4431 0 63.319 0.777008 64.7021 2.16009C66.0852 3.54317 66.8622 5.41903 66.8622 7.375V75.4739L129.439 37.9259C130.27 37.4155 131.194 37.0749 132.157 36.9239C133.12 36.7728 134.104 36.8143 135.051 37.0458C135.998 37.2774 136.89 37.6945 137.675 38.273C138.46 38.8515 139.122 39.5799 139.624 40.4161C140.126 41.2523 140.456 42.1796 140.597 43.1444C140.738 44.1093 140.686 45.0925 140.445 46.0372C140.203 46.9818 139.776 47.8692 139.19 48.6479C138.603 49.4267 137.868 50.0814 137.026 50.5741L73.8223 88.5L137.026 126.426C137.858 126.924 138.583 127.581 139.16 128.359C139.738 129.137 140.156 130.022 140.391 130.962C140.627 131.902 140.675 132.879 140.532 133.837C140.39 134.796 140.06 135.717 139.561 136.548Z" fill="white" fill-opacity="0.1"/>
</svg>
