<svg width="163" height="160" viewBox="0 0 163 160" fill="none" xmlns="http://www.w3.org/2000/svg">
<path d="M161.261 119.461C160.763 120.295 160.105 121.021 159.325 121.599C158.544 122.177 157.658 122.596 156.716 122.831C155.774 123.065 154.794 123.112 153.834 122.967C152.874 122.822 151.952 122.489 151.121 121.987L88.5624 84.4394V152.538C88.5624 154.494 87.7854 156.37 86.4023 157.753C85.0192 159.136 83.1433 159.913 81.1874 159.913C79.2314 159.913 77.3555 159.136 75.9725 157.753C74.5894 156.37 73.8124 154.494 73.8124 152.538V84.4394L11.2355 121.987C10.4047 122.498 9.48089 122.838 8.51759 122.989C7.5543 123.141 6.57061 123.099 5.62344 122.867C4.67627 122.636 3.78442 122.219 2.9995 121.64C2.21458 121.062 1.55216 120.333 1.05058 119.497C0.549003 118.661 0.218215 117.734 0.0773573 116.769C-0.0635003 115.804 -0.0116283 114.821 0.229967 113.876C0.471562 112.932 0.898084 112.044 1.48486 111.265C2.07164 110.487 2.80702 109.832 3.64845 109.339L66.8522 71.4133L3.64845 33.4874C2.80702 32.9947 2.07164 32.34 1.48486 31.5613C0.898084 30.7825 0.471562 29.8951 0.229967 28.9505C-0.0116283 28.0058 -0.0635003 27.0226 0.0773573 26.0578C0.218215 25.0929 0.549003 24.1656 1.05058 23.3294C1.55216 22.4933 2.21458 21.7649 2.9995 21.1864C3.78442 20.6079 4.67627 20.1908 5.62344 19.9592C6.57061 19.7276 7.5543 19.6861 8.51759 19.8372C9.48089 19.9883 10.4047 20.3289 11.2355 20.8393L73.8124 58.3872V-9.71167C73.8124 -11.6676 74.5894 -13.5435 75.9725 -14.9266C77.3555 -16.3097 79.2314 -17.0867 81.1874 -17.0867C83.1433 -17.0867 85.0192 -16.3097 86.4023 -14.9266C87.7854 -13.5435 88.5624 -11.6676 88.5624 -9.71167V58.3872L151.139 20.8393C151.97 20.3289 152.894 19.9883 153.857 19.8372C154.82 19.6861 155.804 19.7276 156.751 19.9592C157.698 20.1908 158.59 20.6079 159.375 21.1864C160.16 21.7649 160.823 22.4933 161.324 23.3294C161.826 24.1656 162.156 25.0929 162.297 26.0578C162.438 27.0226 162.386 28.0058 162.145 28.9505C161.903 29.8951 161.477 30.7825 160.89 31.5613C160.303 32.34 159.568 32.9947 158.726 33.4874L95.5225 71.4133L158.726 109.339C159.558 109.837 160.283 110.494 160.86 111.272C161.438 112.05 161.856 112.935 162.092 113.875C162.327 114.815 162.375 115.792 162.232 116.751C162.09 117.709 161.76 118.63 161.261 119.461Z" fill="white" fill-opacity="0.1"/>
</svg>
